<?xml version="1.0" encoding="UTF-8"?>
<svg width="34px" height="34px" viewBox="0 0 34 34" version="1.1" xmlns="http://www.w3.org/2000/svg" xmlns:xlink="http://www.w3.org/1999/xlink">
    <title>icon_Keelunglogo</title>
    <g id="Proposal-02" stroke="none" stroke-width="1" fill="none" fill-rule="evenodd">
        <g id="Main_1440" transform="translate(-40.000000, -9.000000)" fill="#174B60">
            <g id="Header-/-Body" transform="translate(40.000000, -2.000000)">
                <g id="Group-7" transform="translate(0.000000, 11.000000)">
                    <path d="M16.9985715,7.81597009e-14 L17.3286676,0.00315656724 C26.5504952,0.179656397 33.997248,7.73538907 33.997248,16.9986765 C33.997248,26.3721529 26.3721194,33.997248 16.9985715,33.997248 C7.62504257,33.997248 0,26.3721719 0,16.9986765 C0,7.73537032 7.4466688,0.179655955 16.6684761,0.00315655946 L16.9985715,7.81597009e-14 Z M16.9985715,2.29029704 C8.88879348,2.29029704 2.29029704,8.8888249 2.29029704,16.9986765 C2.29029704,25.0002414 8.71405775,31.5307202 16.6750005,31.7034438 L16.9979494,31.7066228 L17.3221434,31.7034438 C25.1755279,31.5330537 31.5330529,25.1755595 31.7034437,17.3222455 L31.706951,16.9986765 C31.706951,8.88884598 25.1083706,2.29029704 16.9985715,2.29029704 Z M7.49224017,23.0266858 C7.49224017,24.0827687 8.35144937,24.9420829 9.40753224,24.9420829 C10.4637201,24.9420829 11.3228243,24.0827687 11.3228243,23.0266858 L11.3228243,23.0266858 L12.5899558,23.0266858 C12.5899558,24.0827687 13.44906,24.9420829 14.5053528,24.9420829 C15.5615407,24.9420829 16.4206449,24.0827687 16.4206449,23.0266858 L16.4206449,23.0266858 L17.6321267,23.0266858 C17.6321267,24.0827687 18.4913359,24.9420829 19.5474188,24.9420829 C20.6036067,24.9420829 21.4628159,24.0827687 21.4628159,23.0266858 L21.4628159,23.0266858 L22.6742977,23.0266858 C22.6742977,24.0827687 23.5334019,24.9420829 24.5895898,24.9420829 C25.6457776,24.9420829 26.5049868,24.0827687 26.5049868,23.0266858 L26.5049868,23.0266858 L27.7164686,23.0266858 C27.7164686,24.7507742 26.3136781,26.1535647 24.5895898,26.1535647 C23.5558717,26.1535647 22.6380729,25.6489381 22.0685568,24.8735183 C21.4989356,25.6489381 20.5812418,26.1535647 19.5474188,26.1535647 C18.5138058,26.1535647 17.596112,25.6489381 17.0263858,24.8735183 C16.4568697,25.6489381 15.5390709,26.1535647 14.5053528,26.1535647 C13.4544149,26.1535647 12.5237012,25.6318232 11.956495,24.8345636 C11.3891839,25.6318232 10.4584701,26.1535647 9.40753224,26.1535647 C7.68344388,26.1535647 6.28065335,24.7507742 6.28065335,23.0266858 L6.28065335,23.0266858 Z M18.4590171,7.07132951 C21.8294944,6.57583786 24.997008,8.85526747 25.6677435,12.2603945 C26.0638008,14.2707109 25.735468,16.2651725 24.7587646,18.0701103 C24.6905151,18.1963194 24.6066206,18.3140236 24.5135913,18.4233279 C22.7312283,20.5185887 20.9904451,20.6014332 20.9904451,20.6014332 C22.5215447,19.4084312 23.5857125,18.0245406 24.1534437,16.4882959 C24.6281455,15.2038396 24.7407047,13.8226789 24.4790465,12.4944379 C23.9333652,9.72424161 21.3661325,7.86816914 18.635206,8.26989642 C17.9991202,8.36334579 17.4721288,8.5690394 17.0507666,8.80255783 C17.4898737,8.82240269 17.9370657,8.88823725 18.3846776,9.00258148 C19.5553147,9.30140946 20.6505623,10.2277132 21.3895474,11.5437743 C21.9615835,12.5623724 22.5730994,14.2674559 22.2383616,16.6050552 C21.9920333,18.3251535 20.9797351,19.8460683 19.3881559,20.8874512 C18.1979889,21.666126 16.7638036,22.102923 15.5269119,22.102923 C15.1251846,22.102923 14.7443522,22.0568284 14.3993245,21.961489 C13.3272818,21.664971 12.6293515,21.1459595 12.1778545,20.6370279 C11.6545381,21.6341012 10.6094801,22.3162816 9.40755324,22.3162816 C7.68346488,22.3162816 6.28067435,20.9135961 6.28067435,19.1894027 L6.28067435,19.1894027 L7.49215617,19.1894027 C7.49215617,20.2454856 8.35136537,21.1047998 9.40755324,21.1047998 C10.4637411,21.1047998 11.3228453,20.2454856 11.3228453,19.1894027 L11.3228453,19.1894027 L11.4363495,19.1894027 L11.9842358,19.0763185 L12.5760119,18.9471693 C12.5886118,19.001874 12.9059196,20.2914753 14.7223024,20.7937919 C15.7963401,21.0912549 17.442414,20.7126274 18.7248753,19.8735781 C20.0208816,19.0256038 20.842816,17.8037271 21.0390597,16.4333813 C21.3257078,14.4317798 20.8134162,12.9921345 20.3332545,12.1370203 C19.7641583,11.1234622 18.923744,10.3905671 18.0851147,10.1763686 C15.8778196,9.61294236 14.5329886,10.5794608 14.1735761,10.8889987 C13.7777287,11.2299314 13.5181705,11.6101339 13.3481766,12.0027262 C14.0106172,11.4928497 14.8390616,11.1886667 15.7376455,11.1886667 C17.9024159,11.1886667 19.663569,12.9498198 19.663569,15.1145902 L19.663569,15.1145902 L18.4520872,15.1145902 C18.4520872,13.6178253 17.2344104,12.4002535 15.7376455,12.4002535 C14.2410906,12.4002535 13.0234138,13.6178253 13.0234138,15.1145902 L13.0234138,15.1145902 L11.811827,15.1145902 C11.811827,14.9556213 11.8225369,14.7992773 11.8409118,14.6453484 C11.8403868,14.548539 11.8378668,14.4441697 11.8349269,14.3315055 C11.8061571,13.223973 11.7580674,11.3705255 13.3828264,9.97109494 C13.7989386,9.61283736 14.2819353,9.33385424 14.8092418,9.13750557 C14.9680007,8.92362201 16.1654126,7.40827224 18.4590171,7.07132951 Z" id="Combined-Shape"></path>
                </g>
            </g>
        </g>
    </g>
</svg>