<?xml version="1.0" encoding="UTF-8"?>
<svg width="408px" height="154px" viewBox="0 0 408 154" version="1.1" xmlns="http://www.w3.org/2000/svg" xmlns:xlink="http://www.w3.org/1999/xlink">
    <title>img / Footer_Right</title>
    <defs>
        <polygon id="path-1" points="0.0654754301 0.16 28.3384865 0.16 28.3384865 86.4025 0.0654754301 86.4025"></polygon>
    </defs>
    <g id="img-/-Footer_Right" stroke="none" stroke-width="1" fill="none" fill-rule="evenodd">
        <g id="Group-212" transform="translate(4.000000, 29.000000)">
            <path d="M346.8273,89.6887 C346.8273,89.6887 337.6993,90.4487 338.4603,79.4197 C339.2213,68.3907 328.9523,75.9977 325.5293,68.3907 C322.1063,60.7847 328.5723,63.8277 321.3463,53.9387 C314.1203,44.0507 308.7963,53.5587 308.4153,40.6277 C308.0353,27.6977 308.7963,23.5137 317.5433,34.9237 C326.2903,46.3337 333.1363,36.4447 335.7983,47.0937 C338.4603,57.7427 335.0373,57.7427 341.8833,61.9257 C348.7283,66.1087 352.9123,74.0957 353.2923,77.5187 C353.6723,80.9417 357.0953,86.2657 346.8273,89.6887" id="Fill-1" fill="#91BCB1"></path>
            <path d="M310.4298,28.2786 C308.3688,28.2796 308.1878,32.8856 308.4148,40.6286 C308.7958,53.5586 314.1198,44.0506 321.3458,53.9386 C328.5728,63.8276 322.1068,60.7846 325.5298,68.3906 C328.9518,75.9976 339.2208,68.3906 338.4598,79.4206 C337.7908,89.1126 344.7598,89.6996 346.4578,89.6996 C346.6928,89.6996 346.8268,89.6886 346.8268,89.6886 C357.0948,86.2656 353.6718,80.9416 353.2918,77.5186 C352.9118,74.0956 348.7288,66.1086 341.8828,61.9256 C335.0368,57.7426 338.4598,57.7426 335.7978,47.0936 C333.1358,36.4446 326.2898,46.3336 317.5428,34.9246 C314.0338,30.3456 311.8098,28.2786 310.4298,28.2786 M310.4308,29.2786 C310.9998,29.2786 312.5778,30.0916 316.7488,35.5326 C321.4108,41.6126 325.7438,42.0066 328.9088,42.2946 C331.9828,42.5736 333.6758,42.7266 334.8268,47.3366 C335.7258,50.9266 335.9158,53.2796 336.0548,54.9976 C336.3548,58.7036 336.6508,59.9006 341.3618,62.7786 C347.9948,66.8336 351.9488,74.4846 352.2978,77.6296 C352.3678,78.2496 352.5178,78.8886 352.6768,79.5666 C353.4368,82.7936 354.2208,86.1296 346.6378,88.6966 C346.5918,88.6986 346.5318,88.6996 346.4578,88.6996 C345.4908,88.6996 343.0528,88.4996 341.3248,86.6476 C339.8658,85.0856 339.2378,82.6766 339.4568,79.4886 C339.9448,72.4296 335.9398,71.9146 332.7218,71.4996 C330.1578,71.1696 327.7358,70.8566 326.4418,67.9806 C325.1268,65.0606 325.3978,64.0076 325.6838,62.8936 C326.2258,60.7876 326.2718,58.9856 322.1538,53.3486 C318.6728,48.5866 315.5188,48.0046 313.2158,47.5796 C310.7338,47.1226 309.6008,46.9136 309.4148,40.5986 C309.3188,37.3326 309.1188,30.5356 310.2578,29.3616 C310.3328,29.2846 310.3748,29.2786 310.4308,29.2786" id="Fill-3" fill="#004760"></path>
            <path d="M310.8341,31.3382 C314.3221,35.9842 317.7131,40.6812 321.0751,45.3992 C324.3471,50.1702 327.7331,54.9342 331.8971,58.9562 C332.9121,60.0152 334.0391,60.8082 335.1341,61.8442 C335.7061,62.3222 336.2061,62.8622 336.6991,63.4112 C337.2151,63.9422 337.6671,64.5202 338.1151,65.1012 C339.9201,67.4152 341.5001,69.8842 342.9231,72.4302 C345.7111,77.5532 348.0731,82.8882 349.9591,88.3882 L349.8661,88.4242 C347.3961,83.1722 344.8401,77.9732 341.9931,72.9522 C340.5631,70.4492 339.0771,67.9752 337.3691,65.6732 C336.9461,65.0932 336.5111,64.5252 336.0361,63.9932 C335.5811,63.4422 335.1181,62.8992 334.5921,62.4242 C333.6141,61.4312 332.4391,60.4362 331.5061,59.3382 C329.5351,57.1862 327.7241,54.9162 325.8801,52.6732 L323.1191,49.3022 C322.2151,48.1652 321.2871,47.0452 320.4071,45.8892 C316.9141,41.2462 313.6791,36.4142 310.7511,31.3932 L310.8341,31.3382 Z" id="Fill-5" fill="#004760"></path>
            <g id="Group-9" transform="translate(336.000000, 0.840000)">
                <mask id="mask-2" fill="white">
                    <use xlink:href="#path-1"></use>
                </mask>
                <g id="Clip-8"></g>
                <path d="M16.547,86.4025 C16.547,86.4025 7.669,84.2705 13.121,71.2295 C18.574,58.1885 5.686,63.9275 5.748,53.6155 C5.811,43.3025 10.56,49.1305 8.04,34.7975 C5.521,20.4645 -3.554,30.1465 1.648,14.4315 C6.849,-1.2825 9.36,-6.0715 12.65,10.6035 C15.941,27.2795 26.604,17.6455 24.522,31.3725 C22.439,45.0975 19.232,43.9545 23.847,51.2845 C28.462,58.6135 28.949,69.6385 27.834,73.8915 C26.719,78.1445 27.638,85.7065 16.547,86.4025" id="Fill-7" fill="#91BCB1" mask="url(#mask-2)"></path>
            </g>
            <path d="M344.5138,1.00029977 C342.6668,1.00029977 340.5868,6.3913 337.6478,15.2713 C332.4468,30.9863 341.5208,21.3043 344.0398,35.6373 C346.5598,49.9703 341.8108,44.1433 341.7478,54.4553 C341.6858,64.7683 354.5748,59.0283 349.1208,72.0693 C343.6688,85.1103 352.5468,87.2423 352.5468,87.2423 C363.6378,86.5463 362.7188,78.9843 363.8338,74.7313 C364.9498,70.4793 364.4618,59.4533 359.8468,52.1243 C355.2318,44.7943 358.4388,45.9383 360.5218,32.2123 C362.6038,18.4853 351.9408,28.1193 348.6498,11.4433 C347.2188,4.1913 345.9358,0.9993 344.5138,1.00029977 M344.5108,2.0003 C344.7498,2.0723 345.9408,2.8823 347.6688,11.6373 C349.4178,20.5003 353.3378,22.4373 356.1998,23.8513 C358.8558,25.1633 360.4588,25.9553 359.5328,32.0623 C358.8248,36.7293 357.9858,39.6513 357.3718,41.7853 C356.1038,46.2023 355.8768,47.6953 359.0008,52.6563 C363.5068,59.8133 363.9088,70.5043 362.8668,74.4783 C362.6718,75.2213 362.5398,76.0283 362.4018,76.8833 C361.7308,80.9933 360.9718,85.6493 352.6548,86.2333 C352.1298,86.0673 350.2038,85.3293 349.1168,83.1543 C347.8348,80.5923 348.1478,76.9923 350.0438,72.4553 C353.4148,64.3953 350.0548,62.5293 347.0898,60.8843 C344.7468,59.5833 342.7238,58.4603 342.7478,54.4623 C342.7728,50.3423 343.5558,49.0353 344.3128,47.7713 C345.5058,45.7793 346.5358,44.0593 345.0258,35.4643 C343.8178,28.5963 341.0958,26.8303 339.1088,25.5413 C337.0878,24.2303 335.9748,23.5083 338.5968,15.5863 C339.8068,11.9303 343.0178,2.2293 344.5108,2.0003" id="Fill-10" fill="#004760"></path>
            <path d="M343.9044,4.8938 C345.1634,11.7138 346.3174,18.5398 347.4484,25.3688 C348.4844,32.2018 349.5964,39.0878 351.8674,45.6218 C352.4034,47.2688 353.1614,48.7738 353.7604,50.4608 C354.3384,52.1238 354.7584,53.8288 355.0844,55.5448 C355.7334,58.9778 356.1104,62.4458 356.3144,65.9158 C356.7304,72.8588 356.6044,79.8148 356.0394,86.7298 L355.9394,86.7248 C355.8854,79.7938 355.7284,72.8728 355.2854,65.9828 C355.0194,62.5428 354.7254,59.1038 354.1584,55.7138 C353.8624,54.0228 353.5094,52.3418 353.0084,50.7128 L352.1624,48.2808 C351.8644,47.4558 351.5644,46.6328 351.3464,45.7898 C350.3644,42.4478 349.6354,39.0578 348.8574,35.6788 C348.1064,32.2938 347.3004,28.9168 346.6334,25.5128 C345.3504,18.6958 344.3954,11.8208 343.8054,4.9068 L343.9044,4.8938 Z" id="Fill-12" fill="#004760"></path>
            <path d="M362.3605,90.8245 C362.3605,90.8245 370.2335,90.0785 367.1475,78.2305 C364.0605,66.3825 374.4145,72.8755 375.6185,64.0245 C376.8215,55.1735 372.0385,59.5915 375.9465,47.6065 C379.8545,35.6225 386.4565,45.0325 383.9115,30.9225 C381.3665,16.8115 379.7975,12.3995 374.9425,26.2985 C370.0875,40.1965 362.1175,30.6365 362.2305,42.6605 C362.3425,54.6845 365.2325,54.0955 360.3815,59.8185 C355.5295,65.5415 353.7685,74.9365 354.2065,78.7205 C354.6435,82.5035 352.9345,88.8755 362.3605,90.8245" id="Fill-14" fill="#91BCB1"></path>
            <path d="M379.6476,17.8382 C378.4496,17.8382 376.9876,20.4422 374.9426,26.2982 C370.0866,40.1962 362.1176,30.6362 362.2306,42.6602 C362.3426,54.6852 365.2326,54.0962 360.3806,59.8182 C355.5296,65.5412 353.7686,74.9372 354.2066,78.7202 C354.6436,82.5032 352.9346,88.8752 362.3606,90.8242 C362.3606,90.8242 370.2336,90.0782 367.1476,78.2312 C364.0606,66.3822 374.4146,72.8752 375.6186,64.0252 C376.8216,55.1732 372.0386,59.5912 375.9466,47.6072 C379.8546,35.6222 386.4566,45.0322 383.9116,30.9222 C382.4386,22.7562 381.2926,17.8382 379.6476,17.8382 M379.6326,18.8512 C380.8526,19.5982 382.3566,27.9382 382.9266,31.1002 C384.1916,38.1112 383.1816,38.5792 381.3496,39.4292 C379.4656,40.3032 376.8856,41.4992 374.9956,47.2972 C372.7946,54.0442 373.1936,55.8542 374.1096,58.0312 C374.5976,59.1912 375.1026,60.3902 374.6266,63.8902 C374.1706,67.2422 372.3336,67.9462 370.2056,68.7612 C366.8266,70.0542 364.3846,71.5912 366.1796,78.4832 C367.2426,82.5632 367.0786,85.6492 365.6936,87.6562 C364.5426,89.3242 362.8716,89.7272 362.3946,89.8102 C355.4606,88.3162 355.3816,84.4632 355.3066,80.7362 C355.2916,79.9842 355.2766,79.2722 355.1996,78.6052 C354.7936,75.0912 356.4316,66.0242 361.1436,60.4652 C364.4646,56.5482 364.4526,55.2242 363.8966,51.2352 C363.6316,49.3352 363.2686,46.7322 363.2306,42.6512 C363.1806,37.4002 364.5366,36.9532 366.9976,36.1452 C369.6506,35.2732 373.2846,34.0772 375.8866,26.6282 C378.1906,20.0322 379.2936,19.0012 379.6326,18.8512" id="Fill-16" fill="#004760"></path>
            <path d="M379.9005,21.2844 C378.5945,27.1534 376.9505,32.9384 375.0095,38.6264 C374.0135,41.4624 372.8895,44.2524 371.8325,47.0634 C370.7465,49.8644 369.7165,52.6854 368.4755,55.4384 C368.1885,56.1374 367.8335,56.8074 367.4795,57.4824 L366.4645,59.4664 C365.8415,60.8004 365.3385,62.1974 364.8805,63.6104 C363.9855,66.4454 363.3215,69.3584 362.6885,72.2774 C361.4325,78.1214 360.4605,84.0364 359.5205,89.9684 L359.4215,89.9584 C359.7305,83.9534 360.4765,77.9724 361.6445,72.0584 C362.2565,69.1074 363.0095,66.1804 363.9895,63.3124 C364.4785,61.8794 365.0525,60.4684 365.7545,59.1104 C366.4825,57.7304 367.3185,56.5444 367.9835,55.1984 C370.7545,49.8884 372.5285,44.1084 374.2225,38.3684 C376.0155,32.6474 377.8495,26.9404 379.8035,21.2584 L379.9005,21.2844 Z" id="Fill-18" fill="#004760"></path>
            <path d="M211.6154,115.8811 C211.1764,111.2551 209.4564,93.5561 208.2664,87.1231 C207.7054,84.0871 207.9954,81.4331 209.0244,80.1961 C209.3974,79.7481 209.8454,79.5211 210.3574,79.5211 C211.5354,79.5211 213.0044,80.6711 214.4924,82.7611 C218.9274,88.9861 217.7704,107.3851 217.6314,109.3611 L211.6154,115.8811 Z" id="Fill-20" fill="#F2CAC4"></path>
            <path d="M210.3575,79.0208 C208.0955,79.0208 206.8875,82.4158 207.7745,87.2138 C209.1535,94.6668 211.2225,117.0438 211.2225,117.0438 L218.1175,109.5728 C218.1175,109.5728 219.7265,89.2468 214.8995,82.4708 C213.1815,80.0588 211.6085,79.0208 210.3575,79.0208 M210.3575,80.0208 C210.8295,80.0208 212.1365,80.3158 214.0855,83.0518 C218.3145,88.9878 217.3235,106.4828 217.1445,109.1518 L212.0075,114.7188 C211.4445,108.8418 209.8875,93.1328 208.7585,87.0328 C208.1175,83.5698 208.7085,81.3578 209.4095,80.5158 C209.6865,80.1828 209.9965,80.0208 210.3575,80.0208" id="Fill-22" fill="#004760"></path>
            <path d="M205.7882,116.4651 C204.8662,114.0781 200.0952,101.6021 199.0732,96.3781 C198.4212,93.0501 198.6082,89.9461 199.5262,88.8311 C199.7562,88.5521 200.0102,88.4211 200.3242,88.4211 C200.8712,88.4211 201.8642,88.8171 203.4892,90.7021 C208.0942,96.0451 210.2152,112.5061 210.5592,115.4301 L205.7882,116.4651 Z" id="Fill-24" fill="#F2CAC4"></path>
            <path d="M200.3239,87.921199 C198.1569,87.921199 197.7639,92.2942 198.5819,96.4742 C199.7309,102.3462 205.4769,117.0442 205.4769,117.0442 L211.1079,115.8222 C211.1079,115.8222 209.0639,96.4042 203.8679,90.3762 C202.3699,88.6382 201.2019,87.9202 200.3239,87.921199 M200.3239,88.9212 C200.5519,88.9212 201.4259,89.0722 203.1109,91.0282 C207.4259,96.0362 209.5349,111.1972 210.0089,115.0372 L206.1009,115.8852 C204.8979,112.7552 200.5309,101.2242 199.5639,96.2812 C198.8669,92.7232 199.2119,90.0002 199.9119,89.1502 C200.0769,88.9482 200.2079,88.9212 200.3239,88.9212" id="Fill-26" fill="#004760"></path>
            <path d="M216.7657,86.5305 C216.7207,87.3485 216.3337,88.0545 215.7757,88.5695 C215.4737,88.8125 215.0977,88.9655 214.8037,89.1915 C214.4987,89.4055 214.2627,89.6965 214.0027,89.9795 C213.0197,91.1705 211.3657,91.8285 209.8227,91.4005 L209.8097,91.3015 C210.4827,90.8655 211.1167,90.6215 211.7337,90.3085 C212.0547,90.1905 212.3627,90.0445 212.6947,89.9325 C213.0007,89.7745 213.3457,89.6735 213.6827,89.5355 C214.0267,89.4075 214.3397,89.2155 214.5857,88.9515 C214.8307,88.6855 214.9647,88.3175 215.1527,88.0175 C215.5577,87.4395 216.0337,86.9565 216.6757,86.4865 L216.7657,86.5305 Z" id="Fill-28" fill="#004760"></path>
            <path d="M205.9323,93.7883 C205.9923,94.5983 205.7233,95.3333 205.2663,95.9283 C205.0153,96.2143 204.6793,96.4333 204.4283,96.7013 C204.1823,96.9753 203.9853,97.2853 203.8003,97.6223 C203.4333,98.3023 202.8523,98.8473 202.1873,99.2533 C201.4953,99.6173 200.6733,99.7663 199.9023,99.5963 L199.8853,99.4973 C200.5293,99.0313 201.0943,98.7163 201.6483,98.3333 C202.2193,97.9893 202.7743,97.6193 203.4023,97.2463 C203.6993,97.0453 203.9903,96.8173 204.1693,96.5063 C204.3663,96.2063 204.4273,95.8173 204.5583,95.4903 C204.8583,94.8523 205.2613,94.2983 205.8383,93.7553 L205.9323,93.7883 Z" id="Fill-30" fill="#004760"></path>
            <path d="M206.8453,99.5637 C206.9433,100.2667 206.7233,100.9007 206.3233,101.3967 C206.1003,101.6327 205.7943,101.8027 205.5773,102.0257 C205.3633,102.2517 205.2033,102.5197 205.0533,102.8137 C204.7623,103.4097 204.2663,103.8777 203.6963,104.2217 C203.1003,104.5247 202.3873,104.6307 201.7283,104.4377 L201.7113,104.3387 C202.2453,103.8977 202.7043,103.6217 203.1623,103.2987 C203.6383,103.0157 204.1073,102.7227 204.6583,102.4347 C204.9183,102.2777 205.1723,102.0937 205.3203,101.8287 C205.4833,101.5747 205.5143,101.2337 205.6173,100.9557 C205.8613,100.4157 206.2133,99.9637 206.7513,99.5297 L206.8453,99.5637 Z" id="Fill-32" fill="#004760"></path>
            <path d="M208.4713,104.4055 C208.5693,105.1095 208.3493,105.7425 207.9493,106.2385 C207.7263,106.4755 207.4203,106.6445 207.2033,106.8675 C206.9893,107.0935 206.8293,107.3615 206.6803,107.6555 C206.3883,108.2515 205.8923,108.7195 205.3223,109.0635 C204.7263,109.3665 204.0133,109.4725 203.3543,109.2795 L203.3373,109.1805 C203.8713,108.7395 204.3303,108.4645 204.7883,108.1405 C205.2643,107.8585 205.7333,107.5645 206.2843,107.2765 C206.5453,107.1195 206.7983,106.9355 206.9463,106.6705 C207.1093,106.4165 207.1403,106.0755 207.2433,105.7975 C207.4873,105.2585 207.8393,104.8055 208.3773,104.3715 L208.4713,104.4055 Z" id="Fill-34" fill="#004760"></path>
            <path d="M216.4259,91.3723 C216.3809,92.1903 215.9939,92.8963 215.4349,93.4123 C215.1339,93.6543 214.7569,93.8073 214.4639,94.0333 C214.1589,94.2483 213.9229,94.5383 213.6629,94.8213 C212.6789,96.0123 211.0259,96.6703 209.4829,96.2423 L209.4699,96.1433 C210.1429,95.7073 210.7769,95.4633 211.3929,95.1503 C211.7149,95.0323 212.0229,94.8863 212.3539,94.7743 C212.6609,94.6173 213.0049,94.5153 213.3429,94.3773 C213.6869,94.2493 213.9999,94.0573 214.2449,93.7933 C214.4909,93.5273 214.6249,93.1593 214.8119,92.8603 C215.2179,92.2813 215.6939,91.7983 216.3359,91.3283 L216.4259,91.3723 Z" id="Fill-36" fill="#004760"></path>
            <path d="M218.0587,98.054 C218.0137,98.872 217.6267,99.578 217.0687,100.094 C216.7667,100.336 216.3907,100.489 216.0967,100.715 C215.7917,100.93 215.5557,101.22 215.2957,101.503 C214.3127,102.694 212.6587,103.352 211.1157,102.924 L211.1027,102.825 C211.7757,102.389 212.4097,102.145 213.0267,101.832 C213.3477,101.714 213.6557,101.568 213.9877,101.456 C214.2937,101.298 214.6387,101.197 214.9757,101.059 C215.3197,100.931 215.6337,100.739 215.8787,100.475 C216.1237,100.209 216.2577,99.841 216.4457,99.541 C216.8507,98.963 217.3267,98.48 217.9687,98.01 L218.0587,98.054 Z" id="Fill-38" fill="#004760"></path>
            <path d="M217.7189,102.8967 C217.6739,103.7137 217.2869,104.4197 216.7289,104.9357 C216.4269,105.1777 216.0499,105.3317 215.7569,105.5567 C215.4519,105.7717 215.2159,106.0617 214.9559,106.3447 C213.9719,107.5357 212.3189,108.1937 210.7759,107.7657 L210.7629,107.6667 C211.4359,107.2307 212.0699,106.9867 212.6859,106.6737 C213.0079,106.5557 213.3159,106.4097 213.6469,106.2977 C213.9539,106.1407 214.2979,106.0387 214.6359,105.9007 C214.9799,105.7727 215.2929,105.5807 215.5379,105.3177 C215.7839,105.0507 215.9179,104.6827 216.1049,104.3837 C216.5109,103.8047 216.9869,103.3217 217.6289,102.8527 L217.7189,102.8967 Z" id="Fill-40" fill="#004760"></path>
            <path d="M296.2491,100.4778 C296.2491,100.4778 287.1211,101.2388 287.8821,90.2088 C288.6431,79.1808 278.3741,86.7868 274.9511,79.1808 C271.5281,71.5748 277.9941,74.6168 270.7681,64.7288 C263.5421,54.8408 258.2181,64.3478 257.8371,51.4178 C257.4571,38.4878 258.2181,34.3038 266.9651,45.7128 C275.7121,57.1228 282.5581,47.2348 285.2201,57.8828 C287.8821,68.5318 284.4591,68.5318 291.3051,72.7148 C298.1501,76.8988 302.3341,84.8848 302.7141,88.3078 C303.0951,91.7308 306.5181,97.0548 296.2491,100.4778" id="Fill-42" fill="#B2E1D6"></path>
            <path d="M259.8517,39.0685996 C257.7917,39.0696 257.6097,43.6756 257.8377,51.4186 C258.2177,64.3476 263.5417,54.8406 270.7677,64.7286 C277.9947,74.6166 271.5287,71.5746 274.9517,79.1806 C278.3737,86.7866 288.6427,79.1806 287.8817,90.2096 C287.2137,99.9026 294.1817,100.4896 295.8807,100.4896 C296.1147,100.4896 296.2487,100.4776 296.2487,100.4776 C306.5177,97.0546 303.0947,91.7306 302.7137,88.3076 C302.3337,84.8846 298.1507,76.8986 291.3047,72.7146 C284.4587,68.5316 287.8817,68.5316 285.2197,57.8826 C282.5577,47.2346 275.7117,57.1226 266.9647,45.7136 C263.4557,41.1346 261.2317,39.0676 259.8517,39.0685996 M259.8527,40.0686 C260.4217,40.0686 262.0007,40.8806 266.1717,46.3216 C270.8327,52.4026 275.1657,52.7966 278.3307,53.0836 C281.4047,53.3626 283.0977,53.5166 284.2497,58.1256 C285.1477,61.7156 285.3377,64.0696 285.4767,65.7876 C285.7767,69.4936 286.0737,70.6896 290.7837,73.5686 C297.4167,77.6226 301.3717,85.2736 301.7207,88.4186 C301.7897,89.0396 301.9397,89.6786 302.0987,90.3556 C302.8587,93.5826 303.6437,96.9196 296.0607,99.4866 C296.0137,99.4876 295.9537,99.4896 295.8807,99.4896 C294.9127,99.4896 292.4747,99.2896 290.7467,97.4366 C289.2887,95.8756 288.6607,93.4656 288.8797,90.2786 C289.3667,83.2186 285.3617,82.7036 282.1437,82.2896 C279.5807,81.9586 277.1587,81.6466 275.8637,78.7696 C274.5487,75.8496 274.8197,74.7976 275.1067,73.6836 C275.6477,71.5776 275.6947,69.7746 271.5757,64.1386 C268.0947,59.3756 264.9407,58.7946 262.6387,58.3696 C260.1557,57.9116 259.0227,57.7026 258.8367,51.3886 C258.7417,48.1226 258.5407,41.3256 259.6807,40.1516 C259.7557,40.0746 259.7967,40.0686 259.8527,40.0686" id="Fill-44" fill="#004760"></path>
            <path d="M260.2145,42.1555 C260.2145,42.1555 275.7405,65.7815 283.5035,72.1945 C291.2655,78.6065 299.3355,99.1955 299.3355,99.1955" id="Fill-46" fill="#B2E1D6"></path>
            <path d="M260.2565,42.1282 C263.7445,46.7732 267.1355,51.4702 270.4985,56.1892 C273.7695,60.9592 277.1555,65.7232 281.3195,69.7452 C282.3345,70.8042 283.4625,71.5972 284.5555,72.6342 C285.1295,73.1112 285.6295,73.6522 286.1215,74.2002 C286.6375,74.7312 287.0895,75.3102 287.5375,75.8912 C289.3425,78.2052 290.9225,80.6742 292.3455,83.2192 C295.1335,88.3422 297.4955,93.6772 299.3815,99.1772 L299.2885,99.2132 C296.8185,93.9622 294.2615,88.7632 291.4155,83.7422 C289.9855,81.2382 288.5005,78.7652 286.7915,76.4632 C286.3695,75.8822 285.9325,75.3152 285.4585,74.7832 C285.0035,74.2322 284.5405,73.6892 284.0145,73.2142 C283.0365,72.2212 281.8625,71.2252 280.9275,70.1282 C278.9575,67.9752 277.1455,65.7062 275.3015,63.4632 L272.5415,60.0912 C271.6365,58.9552 270.7095,57.8342 269.8305,56.6782 C266.3365,52.0362 263.1015,47.2042 260.1735,42.1832 L260.2565,42.1282 Z" id="Fill-48" fill="#004760"></path>
            <path d="M301.9689,98.0325 C301.9689,98.0325 293.0909,95.9005 298.5439,82.8595 C303.9959,69.8185 291.1079,75.5575 291.1699,65.2455 C291.2329,54.9325 295.9819,60.7605 293.4619,46.4265 C290.9429,32.0935 281.8679,41.7755 287.0699,26.0615 C292.2709,10.3465 294.7819,5.5575 298.0729,22.2335 C301.3639,38.9085 312.0269,29.2755 309.9439,43.0015 C307.8609,56.7275 304.6549,55.5845 309.2699,62.9135 C313.8849,70.2435 314.3709,81.2675 313.2559,85.5205 C312.1419,89.7745 313.0599,97.3365 301.9689,98.0325" id="Fill-50" fill="#B2E1D6"></path>
            <path d="M293.9357,11.7893 C292.0887,11.7893 290.0087,17.1813 287.0697,26.0613 C281.8687,41.7753 290.9427,32.0933 293.4617,46.4263 C295.9817,60.7603 291.2327,54.9333 291.1697,65.2453 C291.1077,75.5583 303.9967,69.8183 298.5437,82.8593 C293.0907,95.9003 301.9687,98.0323 301.9687,98.0323 C313.0597,97.3363 312.1417,89.7743 313.2557,85.5203 C314.3717,81.2683 313.8847,70.2433 309.2697,62.9133 C304.6547,55.5843 307.8607,56.7273 309.9437,43.0013 C312.0267,29.2753 301.3637,38.9083 298.0727,22.2333 C296.6407,14.9813 295.3577,11.7893 293.9357,11.7893 M293.9327,12.7903 C294.1717,12.8613 295.3637,13.6713 297.0907,22.4273 C298.8397,31.2903 302.7597,33.2263 305.6217,34.6413 C308.2777,35.9533 309.8807,36.7453 308.9557,42.8513 C308.2467,47.5183 307.4077,50.4413 306.7937,52.5753 C305.5257,56.9913 305.2987,58.4853 308.4227,63.4463 C312.9297,70.6033 313.3307,81.2943 312.2897,85.2683 C312.0937,86.0103 311.9627,86.8173 311.8237,87.6723 C311.1537,91.7833 310.3947,96.4383 302.0767,97.0223 C301.5517,96.8573 299.6267,96.1183 298.5397,93.9433 C297.2567,91.3823 297.5697,87.7823 299.4667,83.2453 C302.8367,75.1843 299.4767,73.3183 296.5117,71.6733 C294.1687,70.3723 292.1457,69.2493 292.1697,65.2513 C292.1957,61.1323 292.9777,59.8243 293.7357,58.5603 C294.9277,56.5683 295.9577,54.8493 294.4477,46.2533 C293.2407,39.3853 290.5177,37.6203 288.5317,36.3313 C286.5097,35.0193 285.3967,34.2983 288.0187,26.3753 C289.2287,22.7203 292.4397,13.0183 293.9327,12.7903" id="Fill-52" fill="#004760"></path>
            <path d="M293.2775,15.6897 C293.2775,15.6897 297.6685,49.3557 302.1845,59.6797 C306.7005,70.0027 305.4115,97.5167 305.4115,97.5167" id="Fill-54" fill="#B2E1D6"></path>
            <path d="M293.3273,15.6829 C294.5853,22.5039 295.7393,29.3289 296.8703,36.1579 C297.9063,42.9919 299.0183,49.8779 301.2903,56.4109 C301.8253,58.0589 302.5833,59.5629 303.1833,61.2499 C303.7603,62.9139 304.1813,64.6189 304.5063,66.3339 C305.1553,69.7669 305.5323,73.2349 305.7363,76.7059 C306.1533,83.6479 306.0263,90.6039 305.4613,97.5199 L305.3613,97.5149 C305.3083,90.5829 305.1503,83.6629 304.7073,76.7729 C304.4413,73.3319 304.1473,69.8929 303.5813,66.5029 C303.2843,64.8119 302.9323,63.1309 302.4313,61.5029 L301.5843,59.0699 C301.2873,58.2449 300.9873,57.4219 300.7683,56.5789 C299.7863,53.2379 299.0573,49.8469 298.2793,46.4679 C297.5283,43.0829 296.7233,39.7069 296.0553,36.3029 C294.7723,29.4849 293.8183,22.6099 293.2273,15.6969 L293.3273,15.6829 Z" id="Fill-56" fill="#004760"></path>
            <path d="M311.7823,101.6145 C311.7823,101.6145 319.6553,100.8685 316.5693,89.0195 C313.4833,77.1725 323.8363,83.6655 325.0403,74.8135 C326.2433,65.9635 321.4603,70.3815 325.3683,58.3965 C329.2763,46.4125 335.8783,55.8215 333.3333,41.7125 C330.7893,27.6015 329.2193,23.1885 324.3643,37.0875 C319.5103,50.9865 311.5403,41.4255 311.6523,53.4505 C311.7653,65.4745 314.6543,64.8855 309.8033,70.6075 C304.9523,76.3315 303.1903,85.7255 303.6283,89.5095 C304.0653,93.2925 302.3563,99.6655 311.7823,101.6145" id="Fill-58" fill="#B2E1D6"></path>
            <path d="M329.0695,28.6272 C327.8725,28.6272 326.4105,31.2322 324.3645,37.0872 C319.5095,50.9862 311.5405,41.4252 311.6525,53.4502 C311.7655,65.4752 314.6545,64.8852 309.8025,70.6072 C304.9525,76.3312 303.1905,85.7262 303.6285,89.5092 C304.0655,93.2922 302.3565,99.6652 311.7825,101.6142 C311.7825,101.6142 319.6555,100.8682 316.5695,89.0202 C313.4835,77.1722 323.8365,83.6652 325.0405,74.8142 C326.2435,65.9632 321.4605,70.3812 325.3685,58.3972 C329.2765,46.4122 335.8785,55.8212 333.3335,41.7122 C331.8605,33.5462 330.7155,28.6272 329.0695,28.6272 M329.0545,29.6412 C330.2755,30.3872 331.7785,38.7272 332.3485,41.8892 C333.6135,48.9002 332.6045,49.3692 330.7715,50.2192 C328.8875,51.0922 326.3085,52.2882 324.4185,58.0862 C322.2175,64.8332 322.6155,66.6432 323.5325,68.8202 C324.0205,69.9812 324.5245,71.1802 324.0485,74.6792 C323.5925,78.0322 321.7565,78.7352 319.6285,79.5502 C316.2485,80.8432 313.8065,82.3802 315.6015,89.2722 C316.6645,93.3522 316.5015,96.4392 315.1155,98.4452 C313.9645,100.1142 312.2945,100.5162 311.8175,100.6002 C304.8825,99.1052 304.8045,95.2522 304.7285,91.5252 C304.7135,90.7732 304.6985,90.0612 304.6215,89.3952 C304.2155,85.8802 305.8535,76.8132 310.5665,71.2542 C313.8865,67.3372 313.8745,66.0132 313.3185,62.0252 C313.0535,60.1242 312.6905,57.5212 312.6525,53.4402 C312.6035,48.1892 313.9595,47.7432 316.4205,46.9342 C319.0725,46.0622 322.7065,44.8672 325.3085,37.4172 C327.6125,30.8212 328.7155,29.7912 329.0545,29.6412" id="Fill-60" fill="#004760"></path>
            <path d="M329.2745,32.0608 C329.2745,32.0608 321.4045,60.3958 316.2735,68.6988 C311.1415,76.9998 308.8935,100.7518 308.8935,100.7518" id="Fill-62" fill="#B2E1D6"></path>
            <path d="M329.3224,32.0735 C328.0164,37.9435 326.3724,43.7275 324.4324,49.4165 C323.4354,52.2525 322.3124,55.0425 321.2544,57.8525 C320.1684,60.6535 319.1384,63.4745 317.8974,66.2285 C317.6104,66.9265 317.2554,67.5975 316.9014,68.2715 L315.8864,70.2565 C315.2634,71.5895 314.7614,72.9865 314.3034,74.3995 C313.4084,77.2345 312.7434,80.1485 312.1104,83.0665 C310.8544,88.9105 309.8834,94.8265 308.9434,100.7575 L308.8434,100.7485 C309.1524,94.7425 309.8984,88.7615 311.0664,82.8485 C311.6784,79.8975 312.4314,76.9695 313.4114,74.1015 C313.9014,72.6685 314.4744,71.2585 315.1774,69.8995 C315.9044,68.5195 316.7404,67.3335 317.4064,65.9885 C320.1764,60.6775 321.9504,54.8985 323.6444,49.1575 C325.4374,43.4365 327.2714,37.7305 329.2254,32.0475 L329.3224,32.0735 Z" id="Fill-64" fill="#004760"></path>
            <path d="M264.0231,117.5452 C264.0231,117.5452 263.9061,110.5392 263.5341,109.2292 C263.1631,107.9172 264.5721,101.9692 264.5721,101.9692 C264.5721,101.9692 261.5201,95.9412 260.0921,95.1792 C258.6631,94.4152 254.2801,90.8542 254.2801,90.8542 C254.2801,90.8542 254.0461,83.6912 254.3791,82.3422 C254.7121,80.9912 257.2551,82.7532 257.2551,82.7532 C257.2551,82.7532 256.5121,84.0442 256.6881,86.7262 C256.8641,89.4062 260.3511,91.8612 260.3511,91.8612 C260.3511,91.8612 259.9171,84.6712 258.5281,78.7412 C257.1391,72.8132 257.9411,72.0892 257.9411,72.0892 L259.6051,71.2082 L260.8561,79.0742 L263.2291,71.7272 L265.4951,72.0502 L262.5981,82.5382 L264.0451,87.0782 L262.9101,92.0872 C262.9101,92.0872 264.6121,94.8472 265.0621,95.6092 C265.5121,96.3732 267.6861,73.3422 267.6861,73.3422 L270.2881,73.7142 L268.8591,79.7992 L268.5461,85.9042 L270.0531,84.1632 L271.7351,79.2322 L272.8521,78.2742 L274.2611,73.3042 L276.6281,75.3192 L274.0251,79.8392 L272.7331,83.0092 L278.3301,81.0142 L277.9781,83.4792 L269.0541,89.1912 L267.7611,104.1032 L271.9691,102.0482 L271.3041,92.0292 L273.1441,91.8732 L273.3881,96.0312 L277.9581,87.5292 L281.1081,78.1962 L282.6541,79.1152 L279.3471,88.5662 L285.1981,84.7902 L284.7871,87.6672 L279.1311,91.0522 L276.1761,97.0592 L281.8511,94.5162 L284.2971,95.9832 L275.1971,100.9722 L274.2771,104.4752 L267.4091,107.5462 L269.3651,118.3092 L264.0231,117.5452 Z" id="Fill-66" fill="#F9E2C9"></path>
            <path d="M264.0509,117.5198 L269.3759,118.2308 L269.2869,118.3228 L267.2489,107.5758 L267.2259,107.4518 L267.3429,107.3978 L274.1969,104.2948 L274.0869,104.4248 L274.9929,100.9178 L275.0159,100.8318 L275.0959,100.7878 L284.1749,95.7608 L284.1659,96.2008 L281.7149,94.7438 L281.9589,94.7578 L276.2949,97.3248 L275.5619,97.6568 L275.9149,96.9298 L278.8459,90.9118 L278.8869,90.8288 L278.9679,90.7788 L284.6099,87.3718 L284.4459,87.6188 L284.8449,84.7408 L285.3919,85.0908 L279.5499,88.8808 L278.6319,89.4758 L278.9939,88.4438 L282.3079,78.9948 L282.4659,79.4318 L280.9209,78.5118 L281.4559,78.3138 L278.2999,87.6448 L278.2899,87.6738 L278.2769,87.7008 L273.7009,96.1998 L273.1059,97.3078 L273.0319,96.0518 L272.7899,91.8938 L273.1739,92.2258 L271.3339,92.3808 L271.6559,92.0058 L272.3159,102.0248 L272.3299,102.2578 L272.1209,102.3608 L267.9129,104.4128 L267.3649,104.6788 L267.4179,104.0728 L268.7259,89.1638 L268.7399,89.0008 L268.8769,88.9148 L277.8219,83.2368 L277.6929,83.4378 L278.0539,80.9738 L278.4239,81.2758 L272.8199,83.2488 L272.2799,83.4398 L272.4969,82.9128 L273.8009,79.7488 L273.8079,79.7318 L273.8159,79.7178 L276.4369,75.2088 L276.4849,75.4878 L274.1249,73.4628 L274.4619,73.3608 L273.0379,78.3268 L273.0219,78.3828 L272.9779,78.4208 L271.8599,79.3758 L271.9159,79.2938 L270.2189,84.2198 L270.2079,84.2528 L270.1859,84.2788 L268.6739,86.0148 L268.3499,86.3868 L268.3769,85.8958 L268.7069,79.7918 L268.7079,79.7778 L268.7109,79.7648 L270.1569,73.6828 L270.2689,73.8478 L267.6679,73.4688 L267.8139,73.3548 L266.4859,86.5988 C266.2509,88.8058 266.0139,91.0118 265.7239,93.2138 C265.6489,93.7648 265.5729,94.3158 265.4759,94.8668 L265.3939,95.2818 L265.3409,95.4948 C265.3319,95.5298 265.3169,95.5698 265.3019,95.6088 C265.2969,95.6248 265.2839,95.6538 265.2659,95.6818 L265.2389,95.7238 C265.2069,95.7618 265.1399,95.7948 265.0879,95.7978 C265.0419,95.8008 264.9729,95.7688 264.9359,95.7238 C264.8949,95.6708 264.9159,95.6968 264.9039,95.6788 L264.8769,95.6348 L264.8219,95.5468 L264.7129,95.3698 L264.4949,95.0158 L262.7519,92.1848 L262.7119,92.1208 L262.7289,92.0458 L263.8459,87.0338 L263.8509,87.1398 L262.3879,82.6058 L262.3679,82.5438 L262.3849,82.4798 L265.2479,71.9828 L265.4579,72.3038 L263.1919,71.9868 L263.4799,71.8078 L261.1299,79.1638 L260.7649,80.3048 L260.5719,79.1208 L259.2959,71.2578 L259.7509,71.4848 L258.0909,72.3708 L258.1549,72.3258 C258.2119,72.2658 258.1269,72.3908 258.1239,72.4578 C258.1009,72.5388 258.0859,72.6318 258.0719,72.7238 C258.0479,72.9118 258.0369,73.1088 258.0359,73.3078 C258.0289,73.7068 258.0639,74.1148 258.0999,74.5198 C258.1829,75.3338 258.3269,76.1488 258.4869,76.9598 C258.8229,78.5708 259.2189,80.2168 259.4899,81.8698 C260.0529,85.1748 260.4179,88.4988 260.6439,91.8438 L260.6859,92.4748 L260.1819,92.1008 C259.4489,91.5568 258.7929,90.9578 258.1899,90.2858 C257.5909,89.6168 257.0549,88.8678 256.7139,88.0018 C256.5359,87.5768 256.4419,87.0998 256.4109,86.6378 C256.3849,86.1908 256.3879,85.7408 256.4109,85.2908 C256.4759,84.3868 256.6029,83.5018 257.0299,82.6238 L257.1079,82.9668 C256.7179,82.7048 256.2899,82.4628 255.8599,82.2838 C255.4479,82.1108 254.9179,81.9948 254.7329,82.1988 C254.6789,82.2378 254.6569,82.3268 254.6209,82.4028 L254.5649,82.7388 C254.5369,82.9758 254.5159,83.2158 254.5029,83.4598 C254.4729,83.9478 254.4609,84.4398 254.4499,84.9308 C254.4189,86.8998 254.4519,88.8748 254.5029,90.8468 L254.4209,90.6818 C255.4159,91.4918 256.4229,92.2908 257.4419,93.0718 C257.9509,93.4618 258.4639,93.8478 258.9849,94.2178 C259.2449,94.4028 259.5079,94.5858 259.7739,94.7548 C259.9059,94.8438 260.0409,94.9168 260.1749,94.9978 C260.3129,95.0988 260.4879,95.1948 260.5959,95.3178 C261.5469,96.2738 262.1909,97.3938 262.8659,98.4968 C263.5259,99.6078 264.1389,100.7408 264.7189,101.8948 L264.7469,101.9498 L264.7329,102.0068 C264.4279,103.2758 264.1519,104.5538 263.9199,105.8378 C263.8049,106.4798 263.7039,107.1238 263.6369,107.7698 C263.6049,108.0918 263.5769,108.4168 263.5879,108.7348 C263.5759,109.0448 263.6849,109.3498 263.7259,109.6918 C263.8889,111.0018 263.9259,112.3098 263.9769,113.6188 C264.0159,114.9158 264.0549,116.2598 264.0509,117.5198 L264.0509,117.5198 Z M263.9949,117.5698 L263.8379,113.6238 C263.7659,112.3208 263.7069,111.0068 263.5249,109.7228 C263.5059,109.5598 263.4659,109.4098 263.4319,109.2538 C263.3999,109.0818 263.3669,108.9098 263.3689,108.7438 C263.3529,108.4068 263.3759,108.0778 263.4039,107.7488 C263.4609,107.0918 263.5519,106.4408 263.6569,105.7928 C263.8699,104.4978 264.1249,103.2128 264.4109,101.9308 L264.4249,102.0438 C263.8269,100.9118 263.2069,99.7848 262.5479,98.6868 C261.8799,97.6058 261.2059,96.4758 260.3299,95.6108 C260.2229,95.4918 260.1029,95.4398 259.9869,95.3478 C259.8429,95.2638 259.6949,95.1848 259.5599,95.0938 C259.2819,94.9198 259.0149,94.7368 258.7499,94.5508 C258.2199,94.1788 257.7019,93.7948 257.1879,93.4068 C256.1589,92.6278 255.1459,91.8338 254.1409,91.0268 L254.0619,90.9628 L254.0589,90.8608 C253.9949,88.8828 253.9489,86.9068 253.9679,84.9228 C253.9759,84.4268 253.9849,83.9318 254.0129,83.4318 C254.0239,83.1828 254.0449,82.9308 254.0719,82.6768 C254.0869,82.5488 254.1149,82.4148 254.1369,82.2838 C254.1939,82.1308 254.2399,81.9748 254.3769,81.8458 C254.6399,81.5808 255.0049,81.5658 255.2749,81.5968 C255.5589,81.6278 255.8049,81.7198 256.0509,81.8108 C256.5329,82.0098 256.9719,82.2538 257.4039,82.5398 L257.5869,82.6618 L257.4809,82.8828 C257.1409,83.5908 256.9919,84.4808 256.9469,85.3218 C256.9239,86.1838 256.8939,87.0488 257.2289,87.7998 C257.5369,88.5708 258.0389,89.2738 258.6139,89.9058 C259.1859,90.5378 259.8389,91.1238 260.5199,91.6218 L260.0579,91.8788 C259.8139,88.5678 259.4289,85.2508 258.8509,81.9818 C258.5759,80.3398 258.1619,78.7468 257.8299,77.0878 C257.6739,76.2618 257.5309,75.4308 257.4499,74.5838 C257.4149,74.1598 257.3809,73.7348 257.3909,73.2978 C257.3939,73.0808 257.4069,72.8608 257.4379,72.6348 C257.4549,72.5208 257.4729,72.4078 257.5079,72.2878 C257.5559,72.1548 257.5429,72.0778 257.7279,71.8528 L257.7439,71.8318 L257.7929,71.8068 L259.4589,70.9318 L259.8459,70.7288 L259.9139,71.1598 L261.1399,79.0298 L260.5829,78.9868 L262.9789,71.6458 L263.0479,71.4348 L263.2669,71.4658 L265.5299,71.7968 L265.8189,71.8388 L265.7409,72.1188 L262.8099,82.5968 L262.8079,82.4718 L264.2389,87.0158 L264.2559,87.0698 L264.2439,87.1238 L263.0909,92.1278 L263.0679,91.9908 L264.7939,94.8378 L265.0099,95.1938 L265.1179,95.3718 L265.1719,95.4608 L265.1989,95.5048 C265.1989,95.5048 265.2229,95.5448 265.1969,95.5018 C265.1729,95.4668 265.1169,95.4538 265.0849,95.4568 C265.0469,95.4498 264.9959,95.4738 264.9779,95.5028 L264.9769,95.4998 C264.9769,95.4998 264.9809,95.4968 264.9859,95.4798 L265.0139,95.3968 L265.0629,95.2068 L265.1449,94.8058 C265.2439,94.2658 265.3239,93.7178 265.4019,93.1698 C265.7069,90.9768 265.9599,88.7728 266.2089,86.5688 C266.7059,82.1618 267.1589,77.7488 267.5579,73.3308 L267.5709,73.1968 L267.7039,73.2148 L270.3079,73.5808 L270.4529,73.6008 L270.4199,73.7458 L269.0079,79.8338 L269.0119,79.8078 L268.7149,85.9138 L268.4179,85.7938 L269.9199,84.0478 L269.8859,84.1068 L271.5559,79.1708 L271.5719,79.1228 L271.6129,79.0878 L272.7249,78.1258 L272.6649,78.2208 L274.0599,73.2468 L274.1469,72.9338 L274.3969,73.1438 L276.7719,75.1508 L276.9119,75.2688 L276.8209,75.4298 L274.2359,79.9598 L274.2489,79.9308 L272.9699,83.1058 L272.6479,82.7688 L278.2369,80.7508 L278.6689,80.5948 L278.6059,81.0528 L278.2629,83.5198 L278.2449,83.6498 L278.1329,83.7218 L269.2319,89.4698 L269.3829,89.2208 L268.1049,104.1318 L267.6109,103.7918 L271.8169,101.7368 L271.6219,102.0718 L270.9519,92.0528 L270.9289,91.7078 L271.2749,91.6778 L273.1139,91.5208 L273.4759,91.4898 L273.4969,91.8528 L273.7429,96.0098 L273.0739,95.8628 L277.6389,87.3588 L277.6149,87.4138 L280.7609,78.0788 L280.9059,77.6488 L281.2969,77.8808 L282.8429,78.7998 L283.1019,78.9538 L283.0019,79.2378 L279.6989,88.6898 L279.1449,88.2528 L285.0039,84.4918 L285.6649,84.0668 L285.5509,84.8408 L285.1279,87.7158 L285.1049,87.8798 L284.9639,87.9628 L279.2949,91.3248 L279.4169,91.1928 L276.4369,97.1868 L276.0579,96.7928 L281.7419,94.2738 L281.8699,94.2168 L281.9879,94.2888 L284.4269,95.7658 L284.8059,95.9958 L284.4189,96.2058 L275.2989,101.1578 L275.4019,101.0258 L274.4679,104.5248 L274.4429,104.6168 L274.3579,104.6548 L267.4749,107.6948 L267.5689,107.5178 L269.4419,118.2938 L269.4609,118.4028 L269.3539,118.3868 L263.9949,117.5698 Z" id="Fill-68" fill="#004760"></path>
            <path d="M258.2521,117.1311 C258.2521,117.1311 257.2451,111.9231 257.3161,110.8941 C257.3861,109.8641 255.4141,105.6781 255.4141,105.6781 C255.4141,105.6781 256.7341,100.7361 257.6731,99.9481 C258.6121,99.1591 261.3031,95.8371 261.3031,95.8371 C261.3031,95.8371 260.3581,90.4951 259.9011,89.5471 C259.4441,88.5991 257.8351,90.3001 257.8351,90.3001 C257.8351,90.3001 258.5871,91.1411 258.8751,93.1541 C259.1631,95.1681 256.9631,97.5311 256.9631,97.5311 C256.9631,97.5311 256.1631,92.1361 256.2661,87.5271 C256.3691,82.9181 255.6621,82.5071 255.6621,82.5071 L254.2921,82.1141 L254.5931,88.1371 L251.6881,83.0641 L250.0601,83.6571 L253.8431,90.9751 L253.4801,94.5641 L255.1031,98.0981 C255.1031,98.0981 254.2731,100.4071 254.0581,101.0431 C253.8441,101.6791 248.6381,84.9561 248.6381,84.9561 L246.7691,85.6381 L248.7771,89.9231 L249.9621,94.3981 L248.5741,93.3421 L246.5581,89.9521 L245.5821,89.4161 L243.7621,85.9541 L242.3221,87.8171 L244.9561,90.7591 L246.4081,92.9051 L241.9511,92.3011 L242.5971,94.0721 L250.0991,96.9121 L253.3841,107.7561 L249.9471,106.8911 L248.8751,99.3651 L247.4881,99.5361 L247.9561,102.6551 L243.2441,97.0701 L239.4521,90.6481 L238.4511,91.5701 L242.3771,98.0561 L237.4521,96.1711 L238.2061,98.2381 L242.9241,99.8621 L246.0511,103.8521 L241.4501,102.8541 L239.8671,104.3221 L247.3871,106.5981 L248.6151,109.0491 L254.1831,110.2521 L254.4141,118.5301 L258.2521,117.1311 Z" id="Fill-70" fill="#F9E2C9"></path>
            <path d="M258.2848,117.1497 L254.4408,118.6047 L254.3398,118.6427 L254.3348,118.5327 L254.0208,110.2567 L254.1488,110.4117 L248.5738,109.2417 L248.4828,109.2217 L248.4398,109.1367 L247.1978,106.6927 L247.3258,106.7997 L239.7938,104.5657 L239.3708,104.4397 L239.6948,104.1367 L241.2688,102.6597 L241.3688,102.5647 L241.5058,102.5937 L246.1128,103.5677 L245.8218,104.0307 L242.6738,100.0587 L242.8208,100.1637 L238.0938,98.5647 L237.9398,98.5117 L237.8818,98.3567 L237.1178,96.2947 L236.8448,95.5597 L237.5798,95.8377 L242.5098,97.7067 L242.0568,98.2497 L238.1358,91.7607 L237.9798,91.5037 L238.2018,91.2997 L239.2028,90.3787 L239.5378,90.0707 L239.7678,90.4617 L243.5548,96.8857 L243.5198,96.8377 L248.2278,102.4247 L247.6038,102.7087 L247.1378,99.5887 L247.0838,99.2297 L247.4448,99.1857 L248.8318,99.0147 L249.1758,98.9727 L249.2238,99.3157 L250.2908,106.8417 L250.0318,106.5537 L253.4688,107.4217 L253.0548,107.8557 L249.7838,97.0077 L249.9818,97.2197 L242.4948,94.3417 L242.3698,94.2947 L242.3258,94.1707 L241.6888,92.3967 L241.5328,91.9617 L241.9888,92.0247 L246.4428,92.6527 L246.1968,93.0487 L244.7558,90.8947 L244.7758,90.9207 L242.1578,87.9647 L242.0348,87.8267 L242.1468,87.6817 L243.5958,85.8267 L243.7968,85.5687 L243.9478,85.8567 L245.7538,89.3257 L245.6748,89.2467 L246.6488,89.7857 L246.6948,89.8107 L246.7208,89.8557 L248.7248,93.2527 L248.6808,93.2027 L250.0648,94.2617 L249.7988,94.4407 L248.6298,89.9627 L248.6388,89.9887 L246.6458,85.6957 L246.5838,85.5607 L246.7218,85.5107 L248.5948,84.8367 L248.7218,84.7907 L248.7608,84.9187 C249.7408,88.1297 250.7688,91.3287 251.8298,94.5137 C252.3598,96.1067 252.8928,97.6997 253.4628,99.2757 C253.6068,99.6687 253.7518,100.0617 253.9098,100.4457 L254.0318,100.7277 L254.0978,100.8587 L254.1288,100.9117 C254.1358,100.9227 254.1348,100.9207 254.1348,100.9207 C254.1348,100.9207 254.1338,100.9207 254.1298,100.9187 C254.1038,100.8927 254.0468,100.8787 254.0098,100.8917 C253.9758,100.8967 253.9228,100.9227 253.9048,100.9647 C253.8868,101.0137 253.9038,100.9677 253.9008,100.9737 L253.9138,100.9367 L253.9398,100.8627 L253.9928,100.7127 L254.0968,100.4167 L254.9278,98.0357 L254.9338,98.1747 L253.2948,94.6497 L253.2718,94.5997 L253.2768,94.5437 L253.6238,90.9537 L253.6478,91.0767 L249.8328,83.7747 L249.6988,83.5187 L249.9728,83.4177 L251.5978,82.8167 L251.8048,82.7407 L251.9158,82.9337 L254.8428,87.9947 L254.3058,88.1517 L253.9798,82.1297 L253.9558,81.6947 L254.3788,81.8137 L255.7498,82.2007 L255.8018,82.2147 L255.8228,82.2317 C256.0298,82.3967 256.0188,82.4537 256.0828,82.5497 C256.1298,82.6387 256.1618,82.7217 256.1938,82.8057 C256.2528,82.9727 256.2978,83.1367 256.3348,83.2997 C256.4118,83.6267 256.4528,83.9477 256.4938,84.2707 C256.5678,84.9147 256.5928,85.5537 256.6058,86.1927 C256.6208,87.4777 256.5588,88.7167 256.6118,89.9747 C256.6908,92.4837 256.9198,95.0007 257.2528,97.4877 L256.7488,97.3317 C257.5778,96.3787 258.3468,95.2417 258.5768,94.0237 C258.7048,93.4317 258.5518,92.8057 258.4018,92.1717 C258.2408,91.5627 257.9888,90.9267 257.6408,90.4737 L257.4918,90.2787 L257.6458,90.1217 C257.9258,89.8387 258.2138,89.5887 258.5458,89.3627 C258.7168,89.2547 258.8878,89.1467 259.1018,89.0767 C259.3038,89.0087 259.5968,88.9577 259.8588,89.1287 C259.9928,89.2117 260.0558,89.3267 260.1258,89.4387 L260.2378,89.7277 C260.2988,89.9137 260.3538,90.0977 260.4008,90.2817 C260.4988,90.6487 260.5828,91.0147 260.6658,91.3817 C260.9888,92.8497 261.2618,94.3217 261.5218,95.7977 L261.5398,95.8987 L261.4758,95.9767 C260.8558,96.7317 260.2278,97.4777 259.5868,98.2147 C259.2658,98.5837 258.9408,98.9487 258.6058,99.3067 C258.4378,99.4867 258.2678,99.6647 258.0878,99.8377 C258.0018,99.9247 257.9028,100.0087 257.8088,100.0937 C257.7398,100.1787 257.6638,100.2287 257.6028,100.3337 C257.0958,101.0987 256.7698,102.0427 256.4438,102.9447 C256.1268,103.8597 255.8428,104.7907 255.5738,105.7207 L255.5638,105.6077 C255.9738,106.5137 256.3608,107.4277 256.7188,108.3557 C256.8968,108.8207 257.0648,109.2897 257.2088,109.7687 C257.2798,110.0087 257.3478,110.2507 257.3888,110.5037 C257.4158,110.6277 257.4188,110.7637 257.4208,110.8987 C257.4198,111.0167 257.4138,111.1327 257.4248,111.2567 C257.4878,112.2347 257.6458,113.2177 257.7938,114.1947 L258.2848,117.1497 Z M258.2198,117.1127 C258.0148,116.1927 257.8328,115.1817 257.6568,114.2177 C257.4878,113.2407 257.3088,112.2667 257.2218,111.2687 C257.2628,110.2817 256.8108,109.3747 256.4708,108.4547 C256.0968,107.5417 255.6898,106.6377 255.2638,105.7487 L255.2388,105.6947 L255.2538,105.6347 C255.5008,104.6877 255.7788,103.7527 256.0928,102.8247 C256.4218,101.8997 256.7208,100.9707 257.2828,100.1017 C257.3438,99.9937 257.4628,99.8887 257.5518,99.7897 C257.6378,99.7107 257.7248,99.6357 257.8078,99.5487 C257.9778,99.3827 258.1428,99.2077 258.3068,99.0297 C258.6338,98.6737 258.9528,98.3087 259.2688,97.9407 C259.9008,97.2037 260.5208,96.4527 261.1308,95.6977 L261.0838,95.8757 C260.8128,94.4087 260.5278,92.9397 260.1958,91.4887 C260.1108,91.1267 260.0248,90.7647 259.9268,90.4107 C259.8788,90.2317 259.8258,90.0587 259.7688,89.8887 L259.6768,89.6557 C259.6418,89.6127 259.6178,89.5577 259.5838,89.5457 C259.4718,89.4477 259.1008,89.5907 258.8298,89.7857 C258.5448,89.9827 258.2668,90.2277 258.0228,90.4787 L258.0278,90.1277 C258.4958,90.7287 258.7258,91.3657 258.9188,92.0317 C259.0078,92.3637 259.0808,92.6987 259.1318,93.0367 C259.1828,93.3887 259.1878,93.7667 259.1208,94.1157 C259.0018,94.8217 258.7198,95.4667 258.3778,96.0607 C258.0338,96.6597 257.6408,97.2077 257.1778,97.7307 L256.7628,98.2007 L256.6738,97.5737 C256.3148,95.0577 256.0638,92.5377 255.9618,89.9977 C255.9048,88.7297 255.9378,87.4427 255.9368,86.2017 C255.9298,85.5787 255.9098,84.9537 255.8458,84.3407 C255.8088,84.0377 255.7718,83.7317 255.7058,83.4417 C255.6748,83.2967 255.6368,83.1557 255.5908,83.0247 C255.5678,82.9617 255.5428,82.8957 255.5158,82.8447 C255.5098,82.8017 255.4138,82.7187 255.5018,82.7827 L255.5738,82.8127 L254.2058,82.4157 L254.6048,82.0987 L254.8798,88.1237 L254.9348,89.3227 L254.3438,88.2807 L251.4598,83.1947 L251.7778,83.3107 L250.1478,83.8977 L250.2878,83.5407 L254.0388,90.8737 L254.0698,90.9327 L254.0628,90.9977 L253.6818,94.5847 L253.6648,94.4797 L255.2718,98.0207 L255.3038,98.0897 L255.2778,98.1607 L254.4258,100.5287 L254.3188,100.8247 L254.2658,100.9717 L254.2398,101.0457 L254.2258,101.0837 L254.2058,101.1287 C254.1798,101.1777 254.1208,101.2217 254.0768,101.2277 C254.0268,101.2367 253.9568,101.2177 253.9188,101.1877 L253.8888,101.1577 C253.8678,101.1357 253.8518,101.1147 253.8458,101.1037 L253.7978,101.0207 L253.7238,100.8697 L253.5978,100.5727 C253.4398,100.1777 253.2978,99.7827 253.1568,99.3847 C252.5988,97.7967 252.0808,96.1997 251.5648,94.6007 L248.5158,84.9947 L248.6818,85.0767 L246.8148,85.7657 L246.8908,85.5817 L248.9148,89.8587 L248.9208,89.8707 L248.9248,89.8837 L250.1258,94.3537 L250.2538,94.8297 L249.8598,94.5327 L248.4688,93.4827 L248.4418,93.4627 L248.4238,93.4317 L246.3948,90.0487 L246.4658,90.1187 L245.4888,89.5867 L245.4378,89.5587 L245.4098,89.5057 L243.5768,86.0517 L243.9278,86.0827 L242.4978,87.9527 L242.4878,87.6697 L245.1368,90.5977 L245.1468,90.6087 L245.1568,90.6237 L246.6198,92.7627 L246.9408,93.2327 L246.3738,93.1587 L241.9128,92.5777 L242.2128,92.2067 L242.8678,93.9737 L242.6988,93.8027 L250.2158,96.6037 L250.3668,96.6597 L250.4148,96.8167 L253.7138,107.6567 L253.8908,108.2387 L253.2998,108.0897 L249.8618,107.2277 L249.6358,107.1707 L249.6028,106.9397 L248.5258,99.4157 L248.9178,99.7147 L247.5318,99.8877 L247.8378,99.4847 L248.3078,102.6017 L248.4958,103.8457 L247.6838,102.8847 L242.9678,97.3037 L242.9478,97.2807 L242.9318,97.2537 L239.1368,90.8347 L239.7008,90.9177 L238.7008,91.8407 L238.7658,91.3797 L242.6958,97.8617 L243.2638,98.7987 L242.2428,98.4047 L237.3248,96.5047 L237.7878,96.0487 L238.5298,98.1207 L238.3188,97.9127 L243.0278,99.5617 L243.1178,99.5937 L243.1748,99.6667 L246.2798,103.6717 L246.7748,104.3107 L245.9898,104.1357 L241.3938,103.1127 L241.6298,103.0477 L240.0398,104.5077 L239.9408,104.0797 L247.4478,106.3957 L247.5358,106.4227 L247.5758,106.5037 L248.7908,108.9617 L248.6568,108.8567 L254.2168,110.0937 L254.3428,110.1217 L254.3448,110.2487 L254.4928,118.5287 L254.3878,118.4567 L258.2198,117.1127 Z" id="Fill-72" fill="#004760"></path>
            <path d="M202.6412,116.4192 C198.6102,110.3782 193.0622,105.4182 186.5982,102.1062 C186.2492,101.9272 186.4772,101.3582 186.8282,101.5382 C193.3902,104.9002 199.0362,109.9152 203.1292,116.0502 C203.3462,116.3752 202.8602,116.7482 202.6412,116.4192" id="Fill-74" fill="#2B6D7F"></path>
            <path d="M186.9713,102.0979 C186.3043,101.3359 185.1563,101.0489 184.2063,101.3959 C183.8373,101.5299 183.6033,100.9639 183.9753,100.8289 C185.1953,100.3839 186.6053,100.7539 187.4593,101.7289 C187.5683,101.8529 187.5243,102.0629 187.4003,102.1579 C187.2603,102.2629 187.0803,102.2229 186.9713,102.0979" id="Fill-76" fill="#2B6D7F"></path>
            <path d="M184.7296,98.7678 C185.7096,99.6888 186.6086,100.6908 187.4116,101.7698 C187.6466,102.0848 187.1596,102.4558 186.9236,102.1388 C186.1536,101.1038 185.2976,100.1358 184.3576,99.2528 C184.2366,99.1398 184.1926,98.9648 184.3006,98.8248 C184.3936,98.7038 184.6086,98.6538 184.7296,98.7678" id="Fill-78" fill="#2B6D7F"></path>
            <path d="M186.7189,98.928 C187.3439,99.844 187.7629,100.882 187.9479,101.976 C188.0129,102.366 187.4059,102.445 187.3409,102.056 C187.1749,101.069 186.7949,100.124 186.2309,99.297 C186.1379,99.16 186.1539,98.972 186.2899,98.868 C186.4169,98.772 186.6259,98.79 186.7189,98.928" id="Fill-80" fill="#2B6D7F"></path>
            <path d="M188.1652,100.0364 C188.7902,100.9524 189.2092,101.9914 189.3942,103.0854 C189.4592,103.4744 188.8522,103.5534 188.7872,103.1654 C188.6212,102.1784 188.2422,101.2324 187.6772,100.4054 C187.5842,100.2694 187.6002,100.0804 187.7372,99.9764 C187.8642,99.8814 188.0722,99.8994 188.1652,100.0364" id="Fill-82" fill="#2B6D7F"></path>
            <path d="M189.5133,99.7278 C190.3103,100.7678 190.6403,102.1468 190.3873,103.4338 C190.3553,103.5958 190.2173,103.7208 190.0453,103.6998 C189.8893,103.6798 189.7473,103.5208 189.7803,103.3578 C190.0043,102.2178 189.7333,101.0208 189.0253,100.0968 C188.7853,99.7848 189.2733,99.4148 189.5133,99.7278" id="Fill-84" fill="#2B6D7F"></path>
            <path d="M192.3615,101.7874 C193.1585,102.8274 193.4895,104.2064 193.2355,105.4934 C193.2035,105.6554 193.0655,105.7804 192.8935,105.7594 C192.7385,105.7394 192.5965,105.5804 192.6285,105.4174 C192.8535,104.2774 192.5815,103.0804 191.8735,102.1564 C191.6345,101.8444 192.1215,101.4744 192.3615,101.7874" id="Fill-86" fill="#2B6D7F"></path>
            <path d="M192.1354,101.3401 C191.7354,102.5691 191.0884,103.7121 190.2434,104.6891 C189.9874,104.9861 189.5004,104.6151 189.7584,104.3171 C190.5714,103.3761 191.1824,102.2921 191.5684,101.1101 C191.6904,100.7351 192.2574,100.9671 192.1354,101.3401" id="Fill-88" fill="#2B6D7F"></path>
            <path d="M188.025,102.7952 C187.385,103.7042 186.446,104.3952 185.386,104.7292 C185.229,104.7772 185.053,104.7232 184.987,104.5612 C184.928,104.4172 184.996,104.2122 185.154,104.1622 C186.122,103.8572 186.956,103.2522 187.539,102.4232 C187.766,102.1012 188.252,102.4742 188.025,102.7952" id="Fill-90" fill="#2B6D7F"></path>
            <path d="M188.6871,103.3899 C188.5971,103.6899 188.5071,103.9909 188.4161,104.2909 C188.3951,104.3639 188.3161,104.4329 188.2491,104.4599 C188.1811,104.4879 188.0861,104.4919 188.0181,104.4599 C187.9451,104.4269 187.8781,104.3699 187.8501,104.2919 C187.8221,104.2129 187.8261,104.1419 187.8501,104.0619 C187.9391,103.7609 188.0301,103.4599 188.1201,103.1599 C188.1421,103.0879 188.2211,103.0189 188.2881,102.9919 C188.3561,102.9629 188.4501,102.9599 188.5191,102.9919 C188.5911,103.0249 188.6591,103.0809 188.6871,103.1599 C188.7151,103.2379 188.7111,103.3099 188.6871,103.3899" id="Fill-92" fill="#2B6D7F"></path>
            <path d="M190.9244,103.3323 C190.6564,104.4493 189.8824,105.3913 188.8204,105.8403 C188.4584,105.9943 188.2254,105.4283 188.5894,105.2733 C189.4344,104.9163 190.1024,104.1533 190.3174,103.2563 C190.3564,103.0963 190.4824,102.9693 190.6594,102.9913 C190.8094,103.0103 190.9634,103.1713 190.9244,103.3323" id="Fill-94" fill="#2B6D7F"></path>
            <path d="M193.1061,105.3626 C192.9391,105.1916 192.9281,105.3626 192.9821,105.2916 C192.9961,105.2736 193.0241,105.2546 193.0411,105.2356 C193.1181,105.1476 193.1641,105.0296 193.2161,104.9266 C193.3561,104.6526 193.4841,104.3716 193.6001,104.0866 C193.8261,103.5286 194.0021,102.9536 194.1281,102.3656 C194.1621,102.2036 194.2961,102.0786 194.4701,102.0996 C194.6231,102.1196 194.7701,102.2796 194.7351,102.4416 C194.5681,103.2266 194.3241,103.9946 193.9911,104.7256 C193.8501,105.0366 193.7101,105.4206 193.4711,105.6696 C193.2231,105.9266 192.8861,106.0066 192.6181,105.7316 C192.5021,105.6126 192.5571,105.3936 192.6771,105.3026 C192.8221,105.1926 192.9901,105.2436 193.1061,105.3626" id="Fill-96" fill="#2B6D7F"></path>
            <path d="M194.465,107.3372 C193.527,107.5222 192.549,107.5092 191.616,107.2992 C191.455,107.2632 191.329,107.1322 191.351,106.9572 C191.37,106.8062 191.531,106.6552 191.693,106.6912 C192.588,106.8942 193.486,106.9062 194.385,106.7312 C194.547,106.6982 194.708,106.8372 194.728,106.9932 C194.751,107.1662 194.628,107.3052 194.465,107.3372" id="Fill-98" fill="#2B6D7F"></path>
            <path d="M190.5138,104.5286 C189.5768,104.7136 188.5978,104.7016 187.6648,104.4916 C187.5048,104.4556 187.3778,104.3246 187.3998,104.1496 C187.4188,103.9976 187.5798,103.8476 187.7418,103.8836 C188.6368,104.0866 189.5358,104.0986 190.4338,103.9226 C190.5958,103.8906 190.7568,104.0286 190.7768,104.1856 C190.7998,104.3586 190.6768,104.4976 190.5138,104.5286" id="Fill-100" fill="#2B6D7F"></path>
            <path d="M194.4933,106.4788 C194.4743,106.5478 194.4963,106.4648 194.4983,106.4568 C194.5033,106.4358 194.5083,106.4158 194.5133,106.3948 C194.5223,106.3498 194.5313,106.3038 194.5393,106.2578 C194.5543,106.1698 194.5653,106.0828 194.5733,105.9938 C194.5803,105.9058 194.5833,105.8168 194.5843,105.7278 C194.5843,105.7978 194.5833,105.7128 194.5833,105.7048 C194.5833,105.6828 194.5823,105.6628 194.5813,105.6408 C194.5783,105.5948 194.5763,105.5478 194.5713,105.5018 C194.5553,105.3258 194.5253,105.1488 194.4803,104.9778 C194.4983,105.0448 194.4753,104.9628 194.4733,104.9558 C194.4673,104.9348 194.4613,104.9148 194.4543,104.8948 C194.4403,104.8498 194.4263,104.8058 194.4103,104.7618 C194.3783,104.6748 194.3423,104.5888 194.3023,104.5048 C194.2353,104.3598 194.3193,104.1598 194.4703,104.1058 C194.6323,104.0478 194.7963,104.1188 194.8693,104.2738 C195.2233,105.0368 195.2773,105.8998 195.0603,106.7078 C195.0193,106.8638 194.7993,106.9398 194.6623,106.8768 C194.4953,106.8008 194.4493,106.6438 194.4933,106.4788" id="Fill-102" fill="#2B6D7F"></path>
            <path d="M195.3434,108.3382 C193.4334,108.4402 191.5444,108.7922 189.7284,109.3962 C189.3574,109.5202 189.1224,108.9542 189.4974,108.8292 C191.3624,108.2092 193.3014,107.8362 195.2634,107.7322 C195.6544,107.7102 195.7374,108.3172 195.3434,108.3382" id="Fill-104" fill="#2B6D7F"></path>
            <path d="M197.7579,110.3421 C195.8479,110.4451 193.9589,110.7961 192.1429,111.4011 C191.7719,111.5241 191.5369,110.9581 191.9119,110.8341 C193.7769,110.2131 195.7159,109.8401 197.6779,109.7361 C198.0689,109.7151 198.1519,110.3211 197.7579,110.3421" id="Fill-106" fill="#2B6D7F"></path>
            <path d="M201.1632,113.5901 C199.2532,113.6921 197.3632,114.0441 195.5482,114.6481 C195.1772,114.7721 194.9422,114.2061 195.3172,114.0811 C197.1812,113.4611 199.1212,113.0881 201.0832,112.9831 C201.4742,112.9621 201.5572,113.5691 201.1632,113.5901" id="Fill-108" fill="#2B6D7F"></path>
            <path d="M203.0724,116.9251 C201.1624,117.0271 199.2724,117.3791 197.4574,117.9831 C197.0864,118.1071 196.8514,117.5411 197.2264,117.4161 C199.0904,116.7961 201.0304,116.4231 202.9924,116.3191 C203.3834,116.2971 203.4664,116.9041 203.0724,116.9251" id="Fill-110" fill="#2B6D7F"></path>
            <path d="M196.2633,108.2639 C196.8843,106.7509 197.2363,105.1489 197.3133,103.5149 C197.3323,103.1199 197.9393,103.2009 197.9213,103.5909 C197.8413,105.2739 197.4703,106.9359 196.8303,108.4939 C196.6803,108.8589 196.1143,108.6289 196.2633,108.2639" id="Fill-112" fill="#2B6D7F"></path>
            <path d="M196.5382,109.3801 C195.3082,109.8531 193.9092,109.8231 192.7042,109.2861 C192.3442,109.1271 192.5742,108.5601 192.9342,108.7201 C193.9962,109.1931 195.2202,109.2321 196.3072,108.8141 C196.6742,108.6731 196.9072,109.2381 196.5382,109.3801" id="Fill-114" fill="#2B6D7F"></path>
            <path d="M193.5714,106.3567 C192.3414,106.8297 190.9424,106.7997 189.7374,106.2637 C189.3774,106.1037 189.6064,105.5367 189.9674,105.6967 C191.0294,106.1697 192.2524,106.2087 193.3404,105.7907 C193.7064,105.6497 193.9404,106.2147 193.5714,106.3567" id="Fill-116" fill="#2B6D7F"></path>
            <path d="M197.0338,109.5423 C197.3568,108.2683 197.5268,106.9523 197.5178,105.6373 C197.5158,105.4723 197.6028,105.3173 197.7808,105.2933 C197.9288,105.2733 198.1228,105.3913 198.1238,105.5573 C198.1338,106.9283 197.9778,108.2893 197.6408,109.6183 C197.5998,109.7783 197.4768,109.9063 197.2988,109.8843 C197.1508,109.8653 196.9928,109.7033 197.0338,109.5423" id="Fill-118" fill="#2B6D7F"></path>
            <path d="M198.0568,110.3264 C198.3798,109.0524 198.5498,107.7364 198.5398,106.4214 C198.5388,106.2564 198.6258,106.1014 198.8038,106.0774 C198.9518,106.0574 199.1458,106.1754 199.1468,106.3414 C199.1568,107.7124 199.0008,109.0734 198.6638,110.4024 C198.6228,110.5624 198.4998,110.6904 198.3218,110.6684 C198.1738,110.6494 198.0158,110.4874 198.0568,110.3264" id="Fill-120" fill="#2B6D7F"></path>
            <path d="M200.0109,112.2288 C200.3339,110.9558 200.5039,109.6388 200.4949,108.3248 C200.4929,108.1598 200.5799,108.0038 200.7579,107.9808 C200.9059,107.9608 201.0999,108.0778 201.1009,108.2448 C201.1109,109.6148 200.9549,110.9758 200.6179,112.3058 C200.5769,112.4648 200.4539,112.5928 200.2759,112.5708 C200.1279,112.5518 199.9699,112.3898 200.0109,112.2288" id="Fill-122" fill="#2B6D7F"></path>
            <path d="M198.6183,110.7434 C197.2193,111.5204 195.6313,111.8974 194.0343,111.8684 C193.8683,111.8654 193.7493,111.6784 193.7683,111.5264 C193.7903,111.3474 193.9443,111.2584 194.1103,111.2614 C195.6033,111.2884 197.0833,110.9004 198.3873,110.1774 C198.5313,110.0974 198.7283,110.2044 198.7853,110.3454 C198.8543,110.5134 198.7633,110.6634 198.6183,110.7434" id="Fill-124" fill="#2B6D7F"></path>
            <path d="M199.797,111.9212 C198.652,112.8492 197.297,113.4832 195.855,113.7812 C195.468,113.8612 195.391,113.2542 195.775,113.1752 C197.113,112.8982 198.366,112.2932 199.427,111.4332 C199.733,111.1852 200.103,111.6732 199.797,111.9212" id="Fill-126" fill="#2B6D7F"></path>
            <path d="M199.1842,111.1438 C198.0392,112.0718 196.6842,112.7058 195.2422,113.0038 C194.8562,113.0838 194.7782,112.4768 195.1622,112.3978 C196.5012,112.1198 197.7542,111.5158 198.8152,110.6558 C199.1212,110.4078 199.4912,110.8958 199.1842,111.1438" id="Fill-128" fill="#2B6D7F"></path>
            <path d="M198.985,111.8401 C199.239,110.9151 199.494,109.9901 199.749,109.0671 C199.793,108.9061 200.007,108.8411 200.147,108.8981 C200.315,108.9661 200.36,109.1361 200.316,109.2961 C200.061,110.2211 199.807,111.1461 199.552,112.0701 C199.508,112.2301 199.294,112.2961 199.153,112.2381 C198.985,112.1701 198.941,112.0001 198.985,111.8401" id="Fill-130" fill="#2B6D7F"></path>
            <path d="M195.3585,107.7923 C195.6125,106.8673 195.8675,105.9433 196.1225,105.0193 C196.1665,104.8593 196.3805,104.7933 196.5205,104.8503 C196.6895,104.9183 196.7335,105.0883 196.6895,105.2483 C196.4345,106.1733 196.1805,107.0983 195.9255,108.0223 C195.8815,108.1823 195.6675,108.2483 195.5265,108.1903 C195.3585,108.1223 195.3145,107.9523 195.3585,107.7923" id="Fill-132" fill="#2B6D7F"></path>
            <path d="M201.3429,114.4983 C199.9039,114.9333 198.4009,115.0973 196.9019,114.9753 C196.5089,114.9433 196.5869,114.3363 196.9779,114.3683 C198.3669,114.4803 199.7769,114.3343 201.1119,113.9323 C201.2699,113.8843 201.4439,113.9363 201.5099,114.0993 C201.5689,114.2413 201.5019,114.4503 201.3429,114.4983" id="Fill-134" fill="#2B6D7F"></path>
            <path d="M200.3326,113.2571 C200.8856,111.8301 201.4886,110.4231 202.1426,109.0401 C202.3106,108.6851 202.8786,108.9131 202.7096,109.2701 C202.0566,110.6531 201.4526,112.0601 200.8996,113.4861 C200.7576,113.8551 200.1906,113.6241 200.3326,113.2571" id="Fill-136" fill="#2B6D7F"></path>
            <path d="M201.0729,113.8245 C201.6249,112.3975 202.2289,110.9905 202.8829,109.6075 C203.0509,109.2525 203.6179,109.4805 203.4499,109.8375 C202.7959,111.2205 202.1929,112.6275 201.6399,114.0535 C201.4979,114.4225 200.9309,114.1915 201.0729,113.8245" id="Fill-138" fill="#2B6D7F"></path>
            <path d="M201.9752,115.3128 C200.7502,116.0638 199.3672,116.5268 197.9332,116.6408 C197.5412,116.6718 197.4592,116.0658 197.8522,116.0348 C199.1782,115.9288 200.4712,115.5208 201.6062,114.8248 C201.7462,114.7388 201.9282,114.7438 202.0352,114.8838 C202.1272,115.0058 202.1172,115.2258 201.9752,115.3128" id="Fill-140" fill="#2B6D7F"></path>
            <path d="M202.1119,114.4573 C202.7719,113.2913 203.3049,112.0593 203.7039,110.7793 C203.8209,110.4033 204.3869,110.6363 204.2709,111.0103 C203.8719,112.2893 203.3389,113.5203 202.6789,114.6863 C202.5979,114.8303 202.4469,114.9233 202.2799,114.8553 C202.1429,114.7993 202.0299,114.6023 202.1119,114.4573" id="Fill-142" fill="#2B6D7F"></path>
            <path d="M203.0724,117.1546 C201.8794,117.7016 200.6134,118.0836 199.3184,118.2916 C198.9284,118.3536 198.8484,117.7476 199.2384,117.6846 C200.4844,117.4846 201.6934,117.1146 202.8414,116.5886 C203.1994,116.4246 203.4304,116.9906 203.0724,117.1546" id="Fill-144" fill="#2B6D7F"></path>
            <path d="M47.8507181,96.978254 C47.0737181,98.581254 47.7427181,100.510254 49.3457181,101.287254 C50.9477181,102.064254 52.8767181,101.395254 53.6537181,99.792254 C54.4317181,98.190254 53.7617181,96.260254 52.1597181,95.484254 C50.5567181,94.707254 48.6277181,95.375254 47.8507181,96.978254" id="Fill-146" fill="#FFFFFF"></path>
            <path d="M30.0117541,87.0044679 C31.5827541,87.7654679 33.4727541,87.1094679 34.2347541,85.5394679 C34.9957541,83.9694679 34.3397541,82.0794679 32.7697541,81.3174679 C31.1997541,80.5554679 29.3087541,81.2124679 28.5477541,82.7824679 C27.7857541,84.3524679 28.4417541,86.2424679 30.0117541,87.0044679 Z" id="Fill-148" fill="#FFFFFF"></path>
            <path d="M0.341794506,101.520879 C-0.478205494,103.210879 0.227794506,105.247879 1.91879451,106.066879 C3.60979451,106.886879 5.64479451,106.180879 6.46479451,104.489879 C7.28479451,102.798879 6.57879451,100.763879 4.88779451,99.943879 C3.19679451,99.123879 1.16179451,99.829879 0.341794506,101.520879" id="Fill-150" fill="#FFFFFF"></path>
            <path d="M3.34229451,105.957479 C4.25229451,106.190479 5.32129451,105.888479 6.01329451,105.167479 C6.72529451,104.454479 7.05329451,103.492479 7.11929451,102.533479 C7.17229451,101.547479 6.72329451,100.590479 6.00829451,99.981479 C5.29429451,99.370479 4.36029451,98.984479 3.37429451,99.000479 C2.88529451,99.014479 2.38129451,99.123479 1.93529451,99.374479 C1.48029451,99.611479 1.10929451,100.021479 0.847294506,100.414479 C0.296294506,101.213479 -0.0327054937,102.234479 0.136294506,103.250479 C0.299294506,104.273479 1.00329451,105.108479 1.80129451,105.615479 C2.61329451,106.129479 3.51729451,106.403479 4.42329451,106.555479 C4.44229451,106.558479 4.45929451,106.545479 4.46229451,106.526479 C4.46529451,106.511479 4.45529451,106.495479 4.44129451,106.489479 C3.59229451,106.156479 2.75729451,105.781479 2.07829451,105.229479 C1.39229451,104.694479 0.890294506,103.962479 0.808294506,103.150479 C0.707294506,102.344479 0.977294506,101.511479 1.42529451,100.795479 C1.65829451,100.424479 1.90129451,100.124479 2.25029451,99.913479 C2.59129451,99.704479 2.99029451,99.559479 3.41129451,99.511479 C4.24329451,99.392479 5.18829451,99.572479 5.87229451,100.140479 C6.21729451,100.416479 6.47429451,100.795479 6.60729451,101.208479 C6.73629451,101.625479 6.73129451,102.065479 6.65529451,102.482479 C6.43129451,103.305479 6.16729451,104.169479 5.61429451,104.796479 C5.08129451,105.433479 4.25929451,105.842479 3.35229451,105.892479 L3.34829451,105.892479 C3.33029451,105.893479 3.31629451,105.908479 3.31729451,105.927479 C3.31829451,105.941479 3.32829451,105.954479 3.34229451,105.957479" id="Fill-152" fill="#004760"></path>
            <path d="M4.74119451,100.617579 C4.56719451,100.301579 4.25719451,100.169579 3.95819451,100.209579 C3.80419451,100.246579 3.66619451,100.361579 3.53219451,100.402579 C3.39819451,100.452579 3.25519451,100.439579 3.09719451,100.441579 C2.77619451,100.423579 2.45719451,100.576579 2.24819451,100.804579 C2.04719451,101.047579 1.95419451,101.361579 2.02019451,101.694579 C2.02519451,101.717579 2.04719451,101.731579 2.07019451,101.726579 C2.07319451,101.726579 2.07819451,101.724579 2.08019451,101.723579 C2.39819451,101.586579 2.57819451,101.435579 2.75919451,101.302579 C2.90819451,101.134579 3.05519451,100.997579 3.22819451,100.783579 C3.31719451,100.682579 3.43619451,100.614579 3.56519451,100.617579 C3.69519451,100.618579 3.82419451,100.721579 3.93719451,100.765579 C4.17019451,100.829579 4.39119451,100.801579 4.71519451,100.678579 L4.71919451,100.677579 C4.74119451,100.668579 4.75219451,100.643579 4.74319451,100.622579 C4.74319451,100.620579 4.74219451,100.618579 4.74119451,100.617579" id="Fill-154" fill="#004760"></path>
            <path d="M32.1361541,87.2746679 C32.9251541,87.1246679 33.7091541,86.6176679 34.0861541,85.8036679 C34.4671541,84.9996679 34.4071541,84.0396679 34.0631541,83.2886679 C33.7291541,82.4946679 33.0321541,81.8756679 32.2481541,81.6376679 C31.4661541,81.3936679 30.6051541,81.4206679 29.8161541,81.7276679 C29.0271541,82.0196679 28.3171541,82.6996679 28.0891541,83.6086679 C27.8911541,84.4826679 28.0231541,85.3956679 28.4831541,86.1626679 C28.9201541,86.9336679 29.7641541,87.4976679 30.6401541,87.5596679 C31.5191541,87.6196679 32.3261541,87.3006679 32.9661541,86.8336679 C32.9841541,86.8206679 32.9881541,86.7956679 32.9751541,86.7786679 C32.9651541,86.7646679 32.9471541,86.7596679 32.9311541,86.7646679 C32.1911541,87.0186679 31.4141541,87.1606679 30.7281541,86.9876679 C30.0381541,86.8376679 29.4981541,86.3646679 29.1761541,85.7656679 C28.8641541,85.1686679 28.7301541,84.4356679 28.8321541,83.7706679 C28.9451541,83.1316679 29.4251541,82.5616679 30.0371541,82.1746679 C30.6461541,81.7896679 31.4591541,81.6026679 32.1721541,81.8616679 C32.9051541,82.1006679 33.3361541,82.8006679 33.4911541,83.4866679 C33.6601541,84.2046679 33.7561541,84.9136679 33.5271541,85.5686679 C33.3091541,86.2226679 32.7731541,86.7906679 32.1121541,87.2016679 L32.1081541,87.2036679 C32.0901541,87.2146679 32.0851541,87.2386679 32.0961541,87.2566679 C32.1051541,87.2706679 32.1211541,87.2776679 32.1361541,87.2746679" id="Fill-156" fill="#004760"></path>
            <path d="M31.1341541,82.6174679 C30.8421541,82.3994679 30.5251541,82.4314679 30.3161541,82.6184679 C30.2171541,82.7284679 30.1801541,82.9054679 30.1001541,83.0044679 C30.0251541,83.1094679 29.9021541,83.1594679 29.7691541,83.2284679 C29.4841541,83.3474679 29.2961541,83.6264679 29.2411541,83.9074679 C29.2051541,84.1984679 29.3021541,84.4924679 29.5631541,84.7094679 C29.5861541,84.7274679 29.6211541,84.7224679 29.6401541,84.7014679 C29.8731541,84.4454679 29.9611541,84.2604679 30.0401541,84.0884679 C30.0731541,83.9014679 30.1031541,83.7434679 30.1031541,83.4844679 C30.1091541,83.3604679 30.1591541,83.2454679 30.2611541,83.1944679 C30.3631541,83.1394679 30.5221541,83.1824679 30.6301541,83.1754679 C30.8361541,83.1314679 30.9691541,82.9954679 31.1451541,82.6934679 L31.1481541,82.6864679 C31.1621541,82.6634679 31.1551541,82.6334679 31.1341541,82.6174679" id="Fill-158" fill="#004760"></path>
            <path d="M51.2209181,100.919654 C52.0259181,100.766654 52.8249181,100.248654 53.2099181,99.418654 C53.5989181,98.597654 53.5389181,97.617654 53.1879181,96.852654 C52.8459181,96.040654 52.1349181,95.408654 51.3349181,95.166654 C50.5369181,94.918654 49.6589181,94.945654 48.8529181,95.259654 C48.0479181,95.556654 47.3239181,96.250654 47.0909181,97.178654 C46.8889181,98.070654 47.0239181,99.001654 47.4919181,99.783654 C47.9379181,100.571654 48.7999181,101.146654 49.6949181,101.209654 C50.5909181,101.272654 51.4139181,100.945654 52.0679181,100.469654 C52.0859181,100.455654 52.0899181,100.431654 52.0769181,100.413654 C52.0659181,100.398654 52.0479181,100.394654 52.0319181,100.398654 C51.2769181,100.658654 50.4849181,100.802654 49.7839181,100.626654 C49.0799181,100.473654 48.5289181,99.990654 48.1999181,99.380654 C47.8809181,98.770654 47.7449181,98.022654 47.8489181,97.343654 C47.9639181,96.691654 48.4539181,96.109654 49.0779181,95.715654 C49.6999181,95.321654 50.5299181,95.131654 51.2579181,95.395654 C52.0049181,95.640654 52.4449181,96.354654 52.6039181,97.054654 C52.7759181,97.785654 52.8729181,98.509654 52.6399181,99.178654 C52.4169181,99.846654 51.8699181,100.424654 51.1959181,100.844654 L51.1929181,100.847654 C51.1739181,100.858654 51.1679181,100.883654 51.1799181,100.900654 C51.1889181,100.915654 51.2049181,100.922654 51.2209181,100.919654" id="Fill-160" fill="#004760"></path>
            <path d="M50.1979181,96.166754 C49.8999181,95.943754 49.5759181,95.978754 49.3639181,96.167754 C49.2629181,96.280754 49.2249181,96.460754 49.1429181,96.561754 C49.0659181,96.669754 48.9409181,96.720754 48.8049181,96.790754 C48.5139181,96.911754 48.3229181,97.195754 48.2659181,97.482754 C48.2299181,97.779754 48.3289181,98.080754 48.5949181,98.301754 C48.6179181,98.320754 48.6539181,98.315754 48.6739181,98.293754 C48.9109181,98.031754 49.0009181,97.843754 49.0819181,97.667754 C49.1149181,97.477754 49.1469181,97.315754 49.1459181,97.052754 C49.1519181,96.925754 49.2029181,96.808754 49.3069181,96.755754 C49.4109181,96.700754 49.5729181,96.743754 49.6829181,96.735754 C49.8939181,96.690754 50.0309181,96.552754 50.2089181,96.243754 L50.2129181,96.237754 C50.2269181,96.213754 50.2199181,96.183754 50.1979181,96.166754" id="Fill-162" fill="#004760"></path>
            <path d="M81,88.9741156 C81,88.9741156 83.089,86.6061156 86.646,87.0571156 C90.202,87.5091156 93.19,89.9931156 93.19,89.9931156 C93.19,89.9931156 95.555,89.4681156 96.634,89.1401156 C97.714,88.8121156 97.155,90.4871156 97.267,90.9941156 C97.38,91.5001156 98.505,93.3781156 95.681,92.2321156 C92.856,91.0861156 91.538,91.3341156 89.961,92.2151156 C88.384,93.0971156 84.32,92.7581156 81,88.9741156" id="Fill-164" fill="#4C828E"></path>
            <path d="M149,102.601584 C149,102.601584 150.695,100.679584 153.581,101.046584 C156.467,101.413584 158.891,103.427584 158.891,103.427584 C158.891,103.427584 160.81,103.001584 161.686,102.736584 C162.562,102.469584 162.108,103.829584 162.199,104.240584 C162.291,104.651584 163.204,106.174584 160.912,105.245584 C158.621,104.315584 157.55,104.516584 156.271,105.231584 C154.991,105.947584 151.694,105.671584 149,102.601584" id="Fill-166" fill="#698D93"></path>
            <path d="M126.7482,92.4426 C126.7482,92.4426 128.1752,90.8246 130.6042,91.1326 C133.0332,91.4416 135.0742,93.1376 135.0742,93.1376 C135.0742,93.1376 136.6892,92.7796 137.4262,92.5556 C138.1642,92.3316 137.7822,93.4746 137.8582,93.8216 C137.9352,94.1676 138.7042,95.4496 136.7752,94.6676 C134.8462,93.8836 133.9452,94.0536 132.8682,94.6566 C131.7912,95.2576 129.0162,95.0266 126.7482,92.4426" id="Fill-168" fill="#698D93"></path>
            <path d="M105,106.998599 C105,106.998599 106.073,104.857599 108.767,104.499599 C111.462,104.142599 114.134,105.383599 114.134,105.383599 C114.134,105.383599 115.766,104.540599 116.494,104.091599 C117.221,103.641599 117.136,104.977599 117.316,105.327599 C117.497,105.677599 118.686,106.835599 116.394,106.542599 C114.101,106.249599 113.182,106.686599 112.197,107.639599 C111.212,108.590599 108.167,109.128599 105,106.998599" id="Fill-170" fill="#698D93"></path>
            <path d="M59,113.194292 C59,113.194292 61.776,109.849292 65.956,110.005292 C70.136,110.161292 73.391,113.036292 73.391,113.036292 C73.391,113.036292 76.271,112.063292 77.597,111.504292 C78.922,110.944292 78.052,113.197292 78.124,113.844292 C78.196,114.492292 79.307,116.803292 76.084,115.653292 C72.861,114.503292 71.26,114.987292 69.275,116.330292 C67.29,117.673292 62.493,117.725292 59,113.194292" id="Fill-172" fill="#4C828E"></path>
            <path d="M405.4904,27.3108 C405.4904,27.3108 387.9134,23.6658 384.6324,37.3838 C381.3494,51.1028 377.4114,57.3438 366.2534,58.1958 C355.0944,59.0458 337.3724,53.5278 329.4964,64.9748 C321.6194,76.4218 331.4654,84.1468 320.3064,87.7308 C309.1484,91.3158 302.5844,83.6808 293.3944,95.1928 C284.2064,106.7058 286.1754,115.5178 261.2324,113.0978 C236.2904,110.6768 225.7884,126.2978 225.7884,126.2978 L405.4904,126.2978 L405.4904,27.3108 Z" id="Fill-178" fill="#A0C9C9"></path>
            <path d="M405.5685,27.2483 L406.1225,76.5803 L406.4735,126.2983 L406.4805,127.2803 L405.4905,127.2813 L360.5645,127.3503 C345.5895,127.3813 330.6145,127.2753 315.6385,127.2463 L270.7145,126.9903 L225.7885,126.6713 L225.0575,126.6663 L225.4785,126.0903 C226.9435,124.0843 228.7205,122.4303 230.6065,120.8953 C232.4865,119.3533 234.5765,118.0963 236.7175,116.9653 C241.0485,114.7733 245.7815,113.4443 250.5835,112.8893 L252.3855,112.6733 C252.9885,112.6293 253.5945,112.6263 254.1985,112.6013 C255.4065,112.5803 256.6175,112.4653 257.8245,112.5743 L261.4455,112.7663 L265.0275,113.0193 C267.4175,113.1293 269.8085,113.1503 272.1815,112.9703 C272.7795,112.9633 273.3595,112.8253 273.9485,112.7583 C274.5315,112.6603 275.1305,112.6233 275.7005,112.4773 L277.4115,112.0313 C277.9885,111.9003 278.5065,111.6163 279.0565,111.4183 C281.2155,110.5163 283.0855,109.0603 284.5625,107.2403 C286.0555,105.4293 287.2545,103.3583 288.5065,101.3023 C289.7695,99.2493 291.0645,97.1913 292.5565,95.2633 C294.0785,93.3633 295.6855,91.4443 297.8145,90.0623 C298.3385,89.7143 298.9095,89.4323 299.4575,89.1163 C300.0275,88.8423 300.6345,88.6403 301.2245,88.4013 C301.8395,88.2513 302.4555,88.0733 303.0765,87.9663 C303.7005,87.9023 304.3305,87.7693 304.9505,87.7683 C307.4475,87.6403 309.8555,87.9263 312.2095,87.9553 C314.5615,88.0113 316.8805,87.8093 319.1075,87.1813 C320.2345,86.9123 321.3165,86.5013 322.2875,85.9843 C323.2645,85.4683 324.0665,84.7733 324.5575,83.9023 C325.5435,82.1333 325.2235,79.6683 325.1965,77.2623 C325.1245,74.8283 325.3015,72.2613 326.0835,69.8513 C326.8765,67.4363 328.0975,65.2383 329.7015,63.2693 C330.5155,62.2933 331.4615,61.4313 332.4755,60.6673 C333.5005,59.9133 334.6185,59.3063 335.7685,58.7953 C338.0865,57.7973 340.5465,57.2833 342.9895,57.0223 C345.4375,56.7673 347.8815,56.7563 350.3045,56.8413 C355.1475,56.9983 359.9395,57.6043 364.6625,57.5253 C367.0085,57.4753 369.3645,57.2163 371.5605,56.4963 C373.7595,55.7893 375.7485,54.5473 377.3245,52.8643 C378.9105,51.1873 380.0945,49.1303 381.0465,46.9733 C381.9915,44.8073 382.7515,42.5433 383.3845,40.2393 C383.7235,39.0853 383.9725,37.9383 384.3265,36.7583 C384.6485,35.5643 385.1525,34.4163 385.7865,33.3513 C387.0385,31.1953 389.0125,29.5113 391.2265,28.4613 C393.4475,27.3973 395.8765,26.8993 398.2905,26.7363 C399.5005,26.6553 400.7135,26.6693 401.9185,26.7453 C402.5215,26.7883 403.1235,26.8413 403.7215,26.9193 L404.6185,27.0493 L405.0645,27.1253 L405.2875,27.1673 L405.3985,27.1893 C405.4225,27.1983 405.4795,27.1933 405.5685,27.2483 L405.5685,27.2483 Z M405.4135,27.3743 C405.4275,27.4133 405.4115,27.3943 405.3615,27.3903 L405.2515,27.3713 L405.0295,27.3383 L404.5855,27.2773 L403.6925,27.1813 C403.0975,27.1243 402.5005,27.0933 401.9025,27.0713 C400.7075,27.0353 399.5115,27.0723 398.3265,27.1833 C395.9595,27.4053 393.6065,27.9603 391.5105,29.0343 C389.4205,30.0983 387.6215,31.7263 386.5055,33.7703 C385.3065,35.7753 384.9955,38.1533 384.3475,40.5013 C383.7465,42.8423 383.0135,45.1613 382.0755,47.4173 C381.1295,49.6633 379.9255,51.8593 378.2345,53.7123 C376.5575,55.5693 374.3665,56.9883 371.9985,57.7913 C369.6275,58.6093 367.1525,58.9183 364.7045,59.0153 C359.8045,59.1343 355.0205,58.5513 350.2555,58.4343 C345.5235,58.3093 340.6775,58.5093 336.4465,60.3473 C334.3475,61.2643 332.4855,62.6353 331.0415,64.3863 C329.6215,66.1493 328.4785,68.2303 327.7935,70.3913 C327.1005,72.5703 326.9015,74.8663 326.9615,77.2283 C326.9745,78.4143 327.0475,79.6173 326.9985,80.8833 C326.9525,82.1333 326.7555,83.5103 326.0615,84.7473 C325.3605,85.9803 324.2465,86.8863 323.1015,87.4813 C321.9485,88.0873 320.7585,88.5203 319.5475,88.8073 C317.1395,89.4693 314.6175,89.6783 312.1695,89.5913 C309.7185,89.5143 307.3345,89.1943 305.0225,89.2753 C304.4385,89.2643 303.8825,89.3823 303.3105,89.4253 C302.7485,89.5133 302.2025,89.6633 301.6485,89.7833 C301.1235,89.9913 300.5805,90.1563 300.0655,90.3933 C299.5705,90.6723 299.0525,90.9113 298.5715,91.2193 C296.6155,92.4333 295.0475,94.2273 293.5465,96.0343 C292.0615,97.8853 290.7535,99.8773 289.4615,101.8943 C288.1775,103.9153 286.9225,106.0053 285.3205,107.8803 C283.7375,109.7643 281.6835,111.3053 279.3885,112.2123 C277.1045,113.1833 274.6525,113.5063 272.2445,113.7373 C269.8195,113.9053 267.3995,113.8643 264.9885,113.7363 L261.3805,113.4553 L257.8025,113.2403 C256.6105,113.1223 255.4165,113.2293 254.2235,113.2403 C253.6265,113.2613 253.0285,113.2593 252.4335,113.2983 L250.6545,113.4983 C245.9125,114.0253 241.2665,115.3943 237.0235,117.5603 C232.8225,119.7513 228.9225,122.7503 226.0975,126.5063 L225.7885,125.9253 L270.7145,125.6053 L315.6385,125.3513 C330.6145,125.3203 345.5895,125.2163 360.5645,125.2463 L405.4905,125.3143 L404.5065,126.2983 L404.8585,77.0293 L405.4135,27.3743 Z" id="Fill-180" fill="#2B6D7F"></path>
            <path d="M214.2589,116.0364 C214.2589,116.0364 211.3329,104.3344 225.5429,104.9614 C239.7519,105.5884 243.9309,106.7584 245.3939,111.0844 C246.8569,115.4094 247.0659,121.8874 236.6169,125.2304 C226.1699,128.5734 214.8849,125.8574 214.2589,116.0364" id="Fill-182" fill="#EEFFFB"></path>
            <path d="M214.2589,116.0364 C214.2589,116.0364 211.3329,104.3344 225.5429,104.9614 C239.7519,105.5884 243.9309,106.7584 245.3939,111.0844 C246.8569,115.4094 247.0659,121.8874 236.6169,125.2304 C226.1699,128.5734 214.8849,125.8574 214.2589,116.0364 Z" id="Stroke-184" stroke="#004760" stroke-linecap="round" stroke-linejoin="round"></path>
            <path d="M221.1544,118.1262 C221.1544,118.1262 215.0944,108.7232 205.4824,111.6472 C195.8704,114.5732 197.5414,122.0962 198.5864,123.5592 C199.6314,125.0222 207.1544,128.5732 214.6764,126.9022 C222.1994,125.2302 225.1084,122.2512 221.1544,118.1262" id="Fill-186" fill="#A2CCCE"></path>
            <path d="M221.1544,118.1262 C221.1544,118.1262 215.0944,108.7232 205.4824,111.6472 C195.8704,114.5732 197.5414,122.0962 198.5864,123.5592 C199.6314,125.0222 207.1544,128.5732 214.6764,126.9022 C222.1994,125.2302 225.1084,122.2512 221.1544,118.1262 Z" id="Stroke-188" stroke="#004760" stroke-linecap="round" stroke-linejoin="round"></path>
            <path d="M391.215,106.3186 C391.215,106.3186 382.9,100.8926 378.194,106.3186 C373.488,111.7446 369.021,116.6046 376.042,116.8866 C383.064,117.1706 386.574,114.7976 389.446,114.8666 C392.319,114.9356 396.569,108.4916 391.215,106.3186" id="Fill-190" fill="#82AFAE"></path>
            <path d="M369.0988,101.7835 C369.0988,101.7835 366.8948,99.5325 365.6488,101.7835 C364.4018,104.0335 363.2178,106.0495 365.0778,106.1665 C366.9388,106.2835 367.8688,105.3005 368.6298,105.3285 C369.3908,105.3565 370.5168,102.6835 369.0988,101.7835" id="Fill-192" fill="#82AFAE"></path>
            <path d="M312.5978,98.2434 C312.5978,98.2434 310.3948,95.9934 309.1478,98.2434 C307.9008,100.4934 306.7168,102.5104 308.5768,102.6274 C310.4378,102.7444 311.3678,101.7604 312.1288,101.7884 C312.8898,101.8174 314.0158,99.1444 312.5978,98.2434" id="Fill-194" fill="#82AFAE"></path>
            <path d="M317.5646,93.2923 C317.5646,93.2923 316.4666,92.1663 315.8456,93.2923 C315.2246,94.4173 314.6346,95.4253 315.5616,95.4833 C316.4886,95.5423 316.9516,95.0503 317.3316,95.0643 C317.7106,95.0783 318.2706,93.7423 317.5646,93.2923" id="Fill-196" fill="#82AFAE"></path>
            <path d="M236.2047,117.4397 C236.2047,117.4397 234.0017,115.1897 232.7547,117.4397 C231.5077,119.6897 230.3237,121.7067 232.1837,121.8237 C234.0447,121.9407 234.9757,120.9567 235.7357,120.9847 C236.4967,121.0137 237.6227,118.3407 236.2047,117.4397" id="Fill-198" fill="#D0EAE4"></path>
            <path d="M241.1715,112.4885 C241.1715,112.4885 240.0745,111.3625 239.4535,112.4885 C238.8325,113.6135 238.2425,114.6215 239.1695,114.6795 C240.0955,114.7385 240.5595,114.2465 240.9385,114.2605 C241.3175,114.2745 241.8785,112.9385 241.1715,112.4885" id="Fill-200" fill="#D0EAE4"></path>
            <path d="M218.9962,118.5608 C218.9962,118.5608 216.7922,116.3098 215.5462,118.5608 C214.2992,120.8108 213.1152,122.8268 214.9752,122.9438 C216.8362,123.0608 217.7662,122.0778 218.5272,122.1058 C219.2882,122.1338 220.4142,119.4608 218.9962,118.5608" id="Fill-202" fill="#82AFAE"></path>
            <path d="M393.6183,40.1712 C393.6183,40.1712 391.4153,37.9212 390.1683,40.1712 C388.9223,42.4212 387.7373,44.4372 389.5973,44.5542 C391.4583,44.6712 392.3893,43.6882 393.1493,43.7162 C393.9113,43.7452 395.0373,41.0722 393.6183,40.1712" id="Fill-204" fill="#82AFAE"></path>
            <path d="M398.5851,35.219 C398.5851,35.219 397.4881,34.094 396.8671,35.219 C396.2461,36.344 395.6561,37.352 396.5831,37.41 C397.5101,37.47 397.9731,36.978 398.3521,36.991 C398.7311,37.006 399.2921,35.67 398.5851,35.219" id="Fill-206" fill="#82AFAE"></path>
            <path d="M377.1173,101.3294 C377.1173,101.3294 376.0193,100.2044 375.3983,101.3294 C374.7773,102.4544 374.1873,103.4624 375.1143,103.5204 C376.0413,103.5794 376.5043,103.0874 376.8843,103.1014 C377.2633,103.1164 377.8233,101.7794 377.1173,101.3294" id="Fill-208" fill="#82AFAE"></path>
            <path d="M398.5851,45.0637 C398.5851,45.0637 397.4881,43.9387 396.8671,45.0637 C396.2461,46.1887 395.6561,47.1967 396.5831,47.2547 C397.5101,47.3147 397.9731,46.8227 398.3521,46.8357 C398.7311,46.8507 399.2921,45.5147 398.5851,45.0637" id="Fill-210" fill="#82AFAE"></path>
        </g>
    </g>
</svg>