<?xml version="1.0" encoding="UTF-8"?>
<svg width="1440px" height="84px" viewBox="0 0 1440 84" version="1.1" xmlns="http://www.w3.org/2000/svg" xmlns:xlink="http://www.w3.org/1999/xlink">
    <title>Header / bg</title>
    <defs>
        <rect id="path-1" x="0" y="0" width="1440" height="84"></rect>
        <path d="M0,32.6380207 C62.2503179,9.29520961 122.76066,0.738736745 181.531028,6.96860214 C269.686578,16.3134002 283.414502,32.6380207 427.476636,16.3134002 C526.238681,5.12202851 529.921318,34.3428196 630.217935,25.4606196 C677.335064,21.2879587 719.554304,5.44491456 790.171378,10.0451851 C886.392459,16.3134002 905.610887,25.4606196 971.784098,25.4606196 C1037.95731,25.4606196 1033.00255,6.96860214 1119.08691,6.96860214 C1205.17127,6.96860214 1220.84094,25.4606196 1292.53929,25.4606196 C1380.38404,25.4606196 1399.3499,10.0451851 1465.37062,6.96860214 C1498.42336,5.42833543 1539.51261,13.9848083 1588.63836,32.6380207 L1588.63836,86 L0,86 L0,32.6380207 Z" id="path-3"></path>
        <filter x="-1.5%" y="-29.0%" width="103.1%" height="160.5%" filterUnits="objectBoundingBox" id="filter-4">
            <feOffset dx="0" dy="1" in="SourceAlpha" result="shadowOffsetOuter1"></feOffset>
            <feGaussianBlur stdDeviation="8" in="shadowOffsetOuter1" result="shadowBlurOuter1"></feGaussianBlur>
            <feColorMatrix values="0 0 0 0 0   0 0 0 0 0   0 0 0 0 0  0 0 0 0.304113855 0" type="matrix" in="shadowBlurOuter1"></feColorMatrix>
        </filter>
    </defs>
    <g id="Header-/-bg" stroke="none" stroke-width="1" fill="none" fill-rule="evenodd">
        <g id="img-/-Header_bg">
            <mask id="mask-2" fill="white">
                <use xlink:href="#path-1"></use>
            </mask>
            <g id="Mask"></g>
            <g mask="url(#mask-2)" id="Path-2">
                <g transform="translate(-83.279649, -13.000000)">
                    <g stroke="none" transform="translate(794.319180, 45.500000) scale(-1, 1) rotate(-180.000000) translate(-794.319180, -45.500000) ">
                        <use fill="black" fill-opacity="1" filter="url(#filter-4)" xlink:href="#path-3"></use>
                        <use fill="#F8FEFF" fill-rule="evenodd" xlink:href="#path-3"></use>
                    </g>
                    <path d="M0,27.6380207 C62.2503179,4.29520961 122.76066,-4.26126325 181.531028,1.96860214 C269.686578,11.3134002 283.414502,27.6380207 427.476636,11.3134002 C526.238681,0.122028512 529.921318,29.3428196 630.217935,20.4606196 C677.335064,16.2879587 719.554304,0.444914564 790.171378,5.04518512 C886.392459,11.3134002 905.610887,20.4606196 971.784098,20.4606196 C1037.95731,20.4606196 1033.00255,1.96860214 1119.08691,1.96860214 C1205.17127,1.96860214 1220.84094,20.4606196 1292.53929,20.4606196 C1380.38404,20.4606196 1399.3499,5.04518512 1465.37062,1.96860214 C1498.42336,0.428335426 1539.51261,8.98480829 1588.63836,27.6380207 L1588.63836,81 L0,81 L0,27.6380207 Z" stroke="#8FD1E9" stroke-width="2" transform="translate(794.319180, 40.500000) scale(-1, 1) rotate(-180.000000) translate(-794.319180, -40.500000) "></path>
                    <path d="M79.0629575,32.8034933 C140.941508,9.46068213 201.090475,0.904209268 259.509858,7.13407466 C347.138933,16.4788727 370.53451,45.6654725 503.986648,16.4788727 C558.616849,4.53099497 605.819517,34.5082922 705.517149,25.6260921 C752.352888,21.4534312 794.31999,5.61038709 864.515329,10.2106576 C960.161766,16.4788727 987.825722,31.1801467 1045.04343,25.6260921 C1102.26115,20.0720374 1133.80914,4.05749168 1215.65724,7.13407466 C1297.50535,10.2106576 1302.23778,28.1654725 1373.50794,28.1654725 C1460.82807,28.1654725 1472.71225,8.2420555 1538.33869,5.16547252 C1571.19404,3.62520581 1611.1524,12.8378794 1658.21376,32.8034933 L1658.21376,86.1654725 L79.0629575,86.1654725 L79.0629575,32.8034933 Z" stroke="#B3E2F3" stroke-width="2" transform="translate(868.638360, 45.582736) scale(-1, 1) rotate(-180.000000) translate(-868.638360, -45.582736) "></path>
                </g>
            </g>
        </g>
    </g>
</svg>